<svg width="60" height="60" viewBox="0 0 60 60" fill="none" xmlns="http://www.w3.org/2000/svg">
<mask id="mask0" mask-type="alpha" maskUnits="userSpaceOnUse" x="0" y="0" width="60" height="60">
<path d="M0 30C0 13.4315 13.4315 0 30 0H60V30C60 46.5685 46.5685 60 30 60C13.4315 60 0 46.5685 0 30Z" fill="#FFB351"/>
</mask>
<g mask="url(#mask0)">
<path d="M48.3952 38.6276L46.9885 26.4848C52.4869 22.5002 54.7664 15.8134 51.4732 12.5202C50.067 11.114 47.8695 10.6553 45.4446 11.2617C43.2965 11.7987 41.0936 13.1144 39.2417 14.9663C39.2192 14.9892 39.1976 15.0126 39.1751 15.0352L22.9189 13.1518L-6 42.0712L19.4758 67.547L48.3952 38.6276ZM46.2836 14.6179C47.5012 14.3136 48.501 14.4405 49.0268 14.9663C50.3069 16.2465 49.1343 19.7962 46.5123 22.376L46.1094 18.8987L43.2794 16.0687C44.267 15.3696 45.3059 14.8623 46.2836 14.6179ZM24.1825 16.7812L36.7363 18.2356C36.2083 19.1678 35.8103 20.1248 35.5632 21.0733L34.3492 19.8593L31.9032 22.3053L39.2417 29.6443L41.6882 27.1978L39.2417 24.7518C38.716 24.226 38.589 23.2263 38.8933 22.0086C39.1647 20.9229 39.7598 19.7625 40.5818 18.6808L41.054 18.7357L42.8117 20.4935L44.7662 37.3646L19.4758 62.6545L-1.10748 42.0712L24.1825 16.7812Z" fill="black"/>
<path d="M13.0969 35.3281C10.2358 35.3281 7.90771 37.6562 7.90771 40.5177C7.90771 43.3788 10.2358 45.7069 13.0969 45.7069C15.9584 45.7069 18.2865 43.3788 18.2865 40.5177C18.2865 37.6562 15.9584 35.3281 13.0969 35.3281V35.3281ZM13.0969 42.2471C12.143 42.2471 11.3675 41.4711 11.3675 40.5177C11.3675 39.5639 12.143 38.7879 13.0969 38.7879C14.0507 38.7879 14.8267 39.5639 14.8267 40.5177C14.8267 41.4711 14.0512 42.2471 13.0969 42.2471Z" fill="black"/>
<path d="M30.3947 45.7069C33.2562 45.7069 35.5844 43.3788 35.5844 40.5177C35.5844 37.6562 33.2562 35.3281 30.3947 35.3281C27.5332 35.3281 25.2056 37.6562 25.2056 40.5177C25.2056 43.3788 27.5332 45.7069 30.3947 45.7069V45.7069ZM30.3947 38.7879C31.3486 38.7879 32.1246 39.5639 32.1246 40.5177C32.1246 41.4711 31.3486 42.2471 30.3947 42.2471C29.4409 42.2471 28.6649 41.4711 28.6649 40.5177C28.6649 39.5639 29.4409 38.7879 30.3947 38.7879V38.7879Z" fill="black"/>
<path d="M21.7698 29.855L25.1823 30.4235L21.7225 51.181L18.3101 50.6121L21.7698 29.855Z" fill="black"/>
</g>
</svg>
