<svg width="249" height="137" viewBox="0 0 249 137" fill="none" xmlns="http://www.w3.org/2000/svg">
<path d="M217.875 11.6716L241.219 58.3973H202.313C193.715 58.3973 186.751 51.4371 186.751 42.8351V11.6716H217.875Z" fill="#5D9CEC"/>
<path d="M245.11 101.158V112.826H213.985C213.985 99.9446 203.558 89.4829 190.642 89.4829C177.764 89.4829 167.298 99.9446 167.298 112.826H81.706C81.706 99.9446 71.2793 89.4829 58.3626 89.4829C45.4848 89.4829 35.0192 99.9446 35.0192 112.826L15.6053 112.904L15.5664 112.865V73.9596H38.9098H62.2532H112.831H155.627C162.085 73.9596 167.298 68.7462 167.298 62.2879V11.6716H186.751V42.8351C186.751 51.4371 193.715 58.3973 202.313 58.3973H241.219V77.8112V101.158H245.11Z" fill="#ED5565"/>
<path d="M167.306 66.1862C165.154 66.1862 163.415 64.4433 163.415 62.2957V11.695C163.415 9.54353 165.154 7.80444 167.306 7.80444C169.457 7.80444 171.196 9.54353 171.196 11.695V62.2957C171.196 64.4394 169.457 66.1862 167.306 66.1862Z" fill="#ED5565"/>
<path d="M245.109 116.733C242.958 116.733 241.219 114.993 241.219 112.842V101.174C241.219 99.0227 242.958 97.2836 245.109 97.2836C247.261 97.2836 249 99.0227 249 101.174V112.842C249 114.993 247.261 116.733 245.109 116.733Z" fill="#ED5565"/>
<path d="M15.582 116.814C13.4383 116.814 11.6992 115.083 11.6914 112.939C11.6837 110.795 13.415 109.041 15.5664 109.033L34.9998 108.951H35.0154C37.1591 108.951 38.8981 110.683 38.9059 112.826C38.9137 114.974 37.1824 116.725 35.0309 116.732L15.5976 116.814C15.5937 116.814 15.5859 116.814 15.582 116.814Z" fill="#ED5565"/>
<path d="M241.219 101.17C239.067 101.17 237.328 103.326 237.328 101.174V58.3818C237.328 56.2342 239.067 54.4912 241.219 54.4912C243.37 54.4912 245.109 56.2342 245.109 58.3818V101.174C245.109 103.326 243.37 101.17 241.219 101.17Z" fill="#ED5565"/>
<path d="M217.875 15.5856H167.306C165.154 15.5856 163.415 13.8426 163.415 11.695C163.415 9.54353 165.154 7.80444 167.306 7.80444H217.875C220.027 7.80444 221.766 9.54353 221.766 11.695C221.766 13.8426 220.027 15.5856 217.875 15.5856Z" fill="#ED5565"/>
<path d="M241.223 62.2725C239.795 62.2725 238.421 61.4904 237.737 60.121L214.393 13.4342C213.432 11.5123 214.21 9.17403 216.132 8.21306C218.054 7.25209 220.389 8.03021 221.353 9.95215L244.697 56.6389C245.658 58.5609 244.88 60.903 242.958 61.8601C242.401 62.1441 241.806 62.2725 241.223 62.2725Z" fill="#ED5565"/>
<path d="M15.5781 116.748C13.4266 116.748 11.6875 115.009 11.6875 112.857V73.9673C11.6875 71.8159 13.4266 70.0768 15.5781 70.0768C17.7295 70.0768 19.4686 71.8159 19.4686 73.9673V112.857C19.4686 115.009 17.7295 116.748 15.5781 116.748Z" fill="#ED5565"/>
<path d="M155.627 77.8579H15.5781C13.4266 77.8579 11.6875 76.1188 11.6875 73.9673C11.6875 71.8159 13.4266 70.0768 15.5781 70.0768H155.627C157.778 70.0768 159.517 71.8159 159.517 73.9673C159.517 76.1188 157.778 77.8579 155.627 77.8579Z" fill="#ED5565"/>
<path d="M167.396 116.732H81.7021C79.5506 116.732 77.8115 114.993 77.8115 112.842C77.8115 110.69 79.5506 108.951 81.7021 108.951H167.396C169.547 108.951 171.286 110.69 171.286 112.842C171.286 114.993 169.547 116.732 167.396 116.732Z" fill="#ED5565"/>
<path d="M245.11 116.732H213.985C211.834 116.732 210.095 114.993 210.095 112.842C210.095 110.69 211.834 108.951 213.985 108.951H245.11C247.261 108.951 249 110.69 249 112.842C249 114.993 247.261 116.732 245.11 116.732Z" fill="#ED5565"/>
<path d="M241.219 62.2723H202.321C200.17 62.2723 198.431 60.5333 198.431 58.3818C198.431 56.2342 200.17 54.4912 202.321 54.4912H241.219C243.371 54.4912 245.11 56.2342 245.11 58.3818C245.11 60.5333 243.371 62.2723 241.219 62.2723Z" fill="#ED5565"/>
<path d="M202.321 62.2724C191.595 62.2724 182.868 53.5497 182.868 42.8195C182.868 40.6719 184.607 38.9329 186.759 38.9329C188.91 38.9329 190.649 40.6719 190.649 42.8195C190.649 49.2545 195.886 54.4912 202.321 54.4912C204.472 54.4912 206.212 56.2342 206.212 58.3818C206.212 60.5333 204.472 62.2724 202.321 62.2724Z" fill="#ED5565"/>
<path d="M186.759 46.7101C184.607 46.7101 182.868 44.971 182.868 42.8195V11.695C182.868 9.54353 184.607 7.80444 186.759 7.80444C188.91 7.80444 190.649 9.54353 190.649 11.695V42.8195C190.649 44.971 188.91 46.7101 186.759 46.7101Z" fill="#ED5565"/>
<path d="M171.196 61.9534V62.2957H163.45C163.45 66.587 159.96 70.0769 155.669 70.0769C153.517 70.0769 151.778 71.816 151.778 73.9674C151.778 76.1189 153.517 77.858 155.669 77.858C164.251 77.858 171.231 70.8744 171.231 62.2957C171.231 62.1751 171.2 62.0701 171.196 61.9534Z" fill="#ED5565"/>
<path d="M241.223 73.9363C239.071 73.9363 237.332 75.6754 237.332 77.8268C237.332 79.9783 239.071 81.7174 241.223 81.7174H245.113V73.9363H241.223Z" fill="#E6E9ED"/>
<path d="M233.519 89.4946C231.368 89.4946 229.629 91.2337 229.629 93.3852C229.629 95.5367 231.368 97.2758 233.519 97.2758H245.109V89.4946H233.519Z" fill="#DA4453"/>
<path d="M58.3619 89.483C71.2786 89.483 81.7053 99.9448 81.7053 112.826C81.7053 125.743 71.2786 136.17 58.3619 136.17C45.4842 136.17 35.0186 125.743 35.0186 112.826C35.0186 99.9448 45.4842 89.483 58.3619 89.483ZM66.1431 112.826C66.1431 108.547 62.6805 105.045 58.3619 105.045C54.0823 105.045 50.5808 108.547 50.5808 112.826C50.5808 117.141 54.0823 120.608 58.3619 120.608C62.6805 120.608 66.1431 117.141 66.1431 112.826Z" fill="#656D78"/>
<path d="M190.641 105.045C194.96 105.045 198.423 108.547 198.423 112.826C198.423 117.141 194.96 120.608 190.641 120.608C186.362 120.608 182.86 117.141 182.86 112.826C182.86 108.547 186.362 105.045 190.641 105.045Z" fill="#CCD1D9"/>
<path d="M58.3622 105.045C62.6807 105.045 66.1433 108.547 66.1433 112.826C66.1433 117.141 62.6807 120.608 58.3622 120.608C54.0826 120.608 50.5811 117.141 50.5811 112.826C50.5811 108.547 54.0826 105.045 58.3622 105.045Z" fill="#CCD1D9"/>
<path d="M167.298 112.826C167.298 99.9448 177.763 89.483 190.641 89.483C203.558 89.483 213.985 99.9448 213.985 112.826C213.985 125.743 203.558 136.17 190.641 136.17C177.763 136.17 167.298 125.743 167.298 112.826ZM198.422 112.826C198.422 108.547 194.96 105.045 190.641 105.045C186.362 105.045 182.86 108.547 182.86 112.826C182.86 117.141 186.362 120.608 190.641 120.608C194.96 120.608 198.422 117.141 198.422 112.826Z" fill="#656D78"/>
<path d="M151.732 58.3973H163.404V70.069H151.732V58.3973Z" fill="#ED5565"/>
<path d="M97.2637 46.6868C103.722 46.6868 108.935 41.4734 108.935 35.0151C108.935 28.5956 103.722 23.3434 97.2637 23.3434H128.388H140.06C146.518 23.3434 151.732 28.5956 151.732 35.0151C151.732 41.4734 146.518 46.6868 140.06 46.6868V46.7257H108.935H97.2637V46.6868Z" fill="#844747"/>
<path d="M35.0154 35.0151C35.0154 41.4735 40.2288 46.6868 46.6871 46.6868V46.7257H35.0154H23.3438V46.6868C29.8021 46.6868 35.0154 41.4735 35.0154 35.0151Z" fill="#773E3E"/>
<path d="M23.3436 58.3974C23.3436 51.9391 18.1302 46.7257 11.6719 46.7257H23.3436H35.0153C28.5569 46.7257 23.3436 51.9391 23.3436 58.3974Z" fill="#773E3E"/>
<path d="M23.3434 58.3974C23.3434 64.8557 18.13 70.0691 11.6717 70.0691C5.21336 70.0691 0 64.8557 0 58.3974C0 51.9391 5.21336 46.7257 11.6717 46.7257C18.13 46.7257 23.3434 51.9391 23.3434 58.3974Z" fill="#FFD2A6"/>
<path d="M11.6719 70.069C18.1302 70.069 23.3436 64.8557 23.3436 58.3973C23.3436 64.8557 28.5569 70.069 35.0153 70.069H11.6719Z" fill="#773E3E"/>
<path d="M46.6863 58.3973C46.6863 64.8557 51.8997 70.069 58.358 70.069H35.0146C41.473 70.069 46.6863 64.8557 46.6863 58.3973Z" fill="#844747"/>
<path d="M46.6871 23.3434C40.2288 23.3434 35.0154 28.5956 35.0154 35.0151C35.0154 28.5956 29.8021 23.3434 23.3438 23.3434H35.0154H46.6871Z" fill="#773E3E"/>
<path d="M70.0301 58.3974C70.0301 51.9391 64.8167 46.7257 58.3584 46.7257H97.264H108.936C115.394 46.7257 120.607 51.9391 120.607 58.3974C120.607 64.8557 115.394 70.0691 108.936 70.0691H58.3584C64.8167 70.0691 70.0301 64.8557 70.0301 58.3974Z" fill="#965353"/>
<path d="M46.6863 46.7257H58.358C51.8997 46.7257 46.6863 51.9391 46.6863 58.3974C46.6863 51.9391 41.473 46.7257 35.0146 46.7257H46.6863Z" fill="#844747"/>
<path d="M46.6871 58.3974C46.6871 64.8557 41.4738 70.0691 35.0154 70.0691C28.5571 70.0691 23.3438 64.8557 23.3438 58.3974C23.3438 51.9391 28.5571 46.7257 35.0154 46.7257C41.4738 46.7257 46.6871 51.9391 46.6871 58.3974Z" fill="#FFD2A6"/>
<path d="M46.6865 46.6868C53.1449 46.6868 58.3582 41.4734 58.3582 35.0151C58.3582 28.5956 53.1449 23.3434 46.6865 23.3434H85.5922H97.2639C103.722 23.3434 108.936 28.5956 108.936 35.0151C108.936 41.4734 103.722 46.6868 97.2639 46.6868V46.7257H58.3582H46.6865V46.6868Z" fill="#844747"/>
<path d="M97.2645 11.6717C97.2645 5.21336 92.0511 0 85.5928 0H128.389C134.847 0 140.061 5.21336 140.061 11.6717C140.061 18.0872 134.847 23.3434 128.389 23.3434H97.2645H85.5928C92.0511 23.3434 97.2645 18.0872 97.2645 11.6717Z" fill="#773E3E"/>
<path d="M58.3582 46.7257C64.8166 46.7257 70.0299 51.9391 70.0299 58.3974C70.0299 64.8557 64.8166 70.0691 58.3582 70.0691C51.8999 70.0691 46.6865 64.8557 46.6865 58.3974C46.6865 51.9391 51.8999 46.7257 58.3582 46.7257Z" fill="#FFD2A6"/>
<path d="M120.607 58.3974C120.607 51.9391 115.394 46.7257 108.936 46.7257H140.06H151.732C158.19 46.7257 163.403 51.9391 163.403 58.3974C163.403 64.8557 158.19 70.0691 151.732 70.0691H108.936C115.394 70.0691 120.607 64.8557 120.607 58.3974Z" fill="#965353"/>
<path d="M46.6863 11.6717C46.6863 5.21336 41.473 0 35.0146 0H85.592C92.0503 0 97.2637 5.21336 97.2637 11.6717C97.2637 18.0872 92.0503 23.3434 85.592 23.3434H46.6863H35.0146C41.473 23.3434 46.6863 18.0872 46.6863 11.6717Z" fill="#773E3E"/>
<path d="M87.5419 0H83.6475C90.1058 0 95.3192 5.21336 95.3192 11.6717C95.3192 18.0872 90.1058 23.3434 83.6475 23.3434H87.5419C94.0002 23.3434 99.2136 18.0872 99.2136 11.6717C99.2136 5.21336 94.0002 0 87.5419 0Z" fill="#E6E9ED"/>
<path d="M99.2138 23.3668H95.3193C101.778 23.3668 106.991 28.5802 106.991 35.0385C106.991 41.4579 101.778 46.7102 95.3193 46.7102H99.2138C105.672 46.7102 110.885 41.4579 110.885 35.0385C110.885 28.5802 105.672 23.3668 99.2138 23.3668Z" fill="#E6E9ED"/>
<path d="M110.886 46.7335H106.991C113.45 46.7335 118.663 51.9469 118.663 58.4052C118.663 64.8246 113.45 70.0769 106.991 70.0769H110.886C117.344 70.0769 122.557 64.8246 122.557 58.4052C122.557 51.9469 117.344 46.7335 110.886 46.7335Z" fill="#E6E9ED"/>
<path d="M46.6863 23.3434C53.1447 23.3434 58.358 28.5956 58.358 35.0151C58.358 41.4734 53.1447 46.6868 46.6863 46.6868C40.228 46.6868 35.0146 41.4734 35.0146 35.0151C35.0146 28.5956 40.228 23.3434 46.6863 23.3434Z" fill="#FFD2A6"/>
<path d="M35.0153 35.0151C35.0153 41.4734 29.8019 46.6868 23.3436 46.6868C16.8852 46.6868 11.6719 41.4734 11.6719 35.0151C11.6719 28.5956 16.8852 23.3434 23.3436 23.3434C29.8019 23.3434 35.0153 28.5956 35.0153 35.0151Z" fill="#FFD2A6"/>
<path d="M35.0154 0C41.4738 0 46.6871 5.21336 46.6871 11.6717C46.6871 18.0872 41.4738 23.3434 35.0154 23.3434C28.5571 23.3434 23.3438 18.0872 23.3438 11.6717C23.3438 5.21336 28.5571 0 35.0154 0Z" fill="#FFD2A6"/>
</svg>
