<svg width="86" height="86" viewBox="0 0 86 86" fill="none" xmlns="http://www.w3.org/2000/svg">
<mask id="mask0" mask-type="alpha" maskUnits="userSpaceOnUse" x="0" y="0" width="86" height="86">
<circle cx="43" cy="43" r="43" fill="white"/>
</mask>
<g mask="url(#mask0)">
<g clip-path="url(#clip0)">
<path d="M101.846 74.4756L97.698 78.6236C95.7264 80.3247 92.7523 80.1223 91.0298 78.169L86.9558 74.095L51.9426 39.0824L47.8102 27.1229L46.4619 23.2396L50.3453 24.5879L62.3047 28.7203L97.3173 63.7335L101.391 67.8075C103.345 69.53 103.547 72.5041 101.846 74.4756Z" fill="#E64C3C"/>
<path d="M102.139 101.164L22.9975 22.0229C22.1616 21.1837 20.9022 20.9321 19.8074 21.3848C18.7134 21.8374 17.9994 22.9049 18 24.0891V103.231C18.0045 104.847 19.3146 106.157 20.9313 106.162H100.072C101.256 106.162 102.324 105.449 102.777 104.354C103.23 103.26 102.978 102 102.139 101.164ZM31.1904 92.9716V47.5385L76.6228 92.9716H31.1904Z" fill="#F0C419"/>
<path d="M25.3277 35.8138C25.3257 36.6225 24.6707 37.2769 23.862 37.2795H18V34.3482H23.862C24.6707 34.3508 25.3257 35.0058 25.3277 35.8138Z" fill="#393F4A"/>
<path d="M23.862 44.6072C23.8601 45.4159 23.2051 46.0709 22.397 46.0728H18V43.1415H22.397C23.2051 43.1441 23.8601 43.7991 23.862 44.6072Z" fill="#393F4A"/>
<path d="M25.3277 53.4012C25.3257 54.2092 24.6707 54.8642 23.862 54.8662H18V51.9355H23.862C24.6707 51.9375 25.3257 52.5925 25.3277 53.4012Z" fill="#393F4A"/>
<path d="M18 63.6602H22.397C23.2064 63.6602 23.862 63.0039 23.862 62.1945C23.862 61.3852 23.2064 60.7289 22.397 60.7289H18V63.6602Z" fill="#393F4A"/>
<path d="M25.3277 70.9879C25.3257 71.796 24.6707 72.451 23.862 72.4536H18V69.5222H23.862C24.6707 69.5248 25.3257 70.1792 25.3277 70.9879Z" fill="#393F4A"/>
<path d="M23.862 79.7812C23.8601 80.5899 23.2051 81.2443 22.397 81.2469H18V78.3155H22.397C23.2051 78.3181 23.8601 78.9725 23.862 79.7812Z" fill="#393F4A"/>
<path d="M82.8076 69.9469L93.1691 59.5855L97.317 63.7334L86.9549 74.0949L82.8076 69.9469Z" fill="#BDC3C7"/>
<path d="M68.2249 45.0034C67.647 45.5696 66.7222 45.5696 66.1438 45.0034L56.0903 34.9493V34.9344L58.1565 32.8682H58.1714L68.2249 42.9223C68.7969 43.4982 68.7969 44.4269 68.2249 45.0034Z" fill="#C03A2B"/>
<path d="M89.0368 63.7334L86.9557 65.8145L70.3651 49.224C69.9909 48.8524 69.8437 48.3096 69.9792 47.8005C70.1154 47.2908 70.513 46.8932 71.0227 46.757C71.5318 46.6215 72.0746 46.7687 72.4462 47.1429L89.0368 63.7334Z" fill="#C03A2B"/>
<path d="M62.3047 28.7203L51.9426 39.0824L47.8102 27.1229L46.4619 23.2396L50.3453 24.5879L62.3047 28.7203Z" fill="#FDD7AD"/>
<path d="M50.1987 26.9764C49.8544 27.3143 49.3913 27.5036 48.9088 27.5043C48.5106 27.503 48.1234 27.3694 47.8102 27.1229L46.4619 23.2396L50.3453 24.5879C50.9037 25.3077 50.8408 26.3298 50.1987 26.9764Z" fill="#2C2F38"/>
</g>
</g>
<defs>
<clipPath id="clip0">
<rect width="85" height="85" fill="white" transform="translate(18 21)"/>
</clipPath>
</defs>
</svg>
