<svg width="86" height="86" viewBox="0 0 86 86" fill="none" xmlns="http://www.w3.org/2000/svg">
<mask id="mask0" mask-type="alpha" maskUnits="userSpaceOnUse" x="0" y="0" width="86" height="86">
<circle cx="43" cy="43" r="43" fill="white"/>
</mask>
<g mask="url(#mask0)">
<path d="M43.4341 54.8101C38.6731 54.8101 34.8135 50.9495 34.8135 46.1885C34.8135 41.4276 38.6731 37.5679 43.4341 37.5679C48.196 37.5679 52.0556 41.4276 52.0556 46.1885C52.0499 50.9476 48.1931 54.8044 43.4341 54.8101ZM43.4341 41.8778C41.0536 41.8778 39.1243 43.8081 39.1243 46.1885C39.1243 48.569 41.0536 50.4993 43.4341 50.4993C45.8145 50.4993 47.7449 48.569 47.7449 46.1885C47.742 43.809 45.8136 41.8806 43.4341 41.8778Z" fill="#7F8284"/>
<path d="M66.8613 69.0557L45.8262 111.623C45.7595 111.746 45.6803 111.861 45.5887 111.967C45.0642 112.621 44.2717 113.002 43.4334 113.002C42.595 113.002 41.8025 112.621 41.278 111.967C41.1874 111.861 41.1073 111.746 41.0415 111.623L20.0064 69.0557C19.5734 68.2527 19.6402 67.2713 20.1781 66.5341L29.2307 53.7963C29.7505 53.0772 30.584 52.6518 31.4719 52.6547H55.3948C56.2827 52.6518 57.1172 53.0772 57.637 53.7963L66.6887 66.5341C67.2266 67.2713 67.2943 68.2527 66.8613 69.0557Z" fill="#A5A5A4"/>
<path d="M43.4337 44.0332C42.2435 44.0332 41.2783 43.069 41.2783 41.8778V22.4812C41.2783 21.291 42.2435 20.3258 43.4337 20.3258C44.6239 20.3258 45.5891 21.291 45.5891 22.4812V41.8778C45.5891 43.069 44.6239 44.0332 43.4337 44.0332Z" fill="#E4C05C"/>
<path d="M44.5982 18.5156L24.0371 35.4126L-13.1414 42.4386L-15.7279 36.2099L-17.3654 32.2224L-19.7363 26.5116L6.79498 11.9455L38.0023 2.58771L40.4381 8.47211L42.0766 12.4157L44.5982 18.5156Z" fill="#F9EAB0"/>
<path d="M55.5157 27.9879L-14.173 56.8539C-14.8788 57.1467 -15.6866 57.0437 -16.296 56.5831C-16.9054 56.1234 -17.2268 55.3757 -17.1391 54.6165L-13.1487 42.4328L44.5938 18.5157L56.0307 24.3085C56.6286 24.7834 56.931 25.5397 56.8251 26.296C56.7193 27.0514 56.2214 27.6951 55.5157 27.9879Z" fill="#E64C3C"/>
<path d="M39.0199 -11.8362L-30.6688 17.0298C-31.3745 17.3225 -31.8733 17.9663 -31.9792 18.7226C-32.085 19.4789 -31.7827 20.2342 -31.1847 20.7092L-19.7468 26.503L37.9947 2.58579L41.986 -9.59883C42.0727 -10.358 41.7523 -11.1057 41.1429 -11.5654C40.5335 -12.0251 39.7257 -12.1281 39.0199 -11.8362Z" fill="#E64C3C"/>
<path d="M42.0768 12.4157L41.8174 12.5454L-15.7277 36.2099L-17.3652 32.2224L40.1579 8.55794C40.2485 8.51979 40.342 8.49023 40.4383 8.47211L42.0768 12.4157Z" fill="#E4C05C"/>
<path d="M45.5891 67.7414V111.967C45.0646 112.621 44.272 113.002 43.4337 113.002C42.5954 113.002 41.8029 112.621 41.2783 111.967V67.7414C41.2783 66.5512 42.2435 65.5861 43.4337 65.5861C44.6239 65.5861 45.5891 66.5512 45.5891 67.7414Z" fill="#56595E"/>
</g>
</svg>
