<svg width="86" height="86" viewBox="0 0 86 86" fill="none" xmlns="http://www.w3.org/2000/svg">
<mask id="mask0" mask-type="alpha" maskUnits="userSpaceOnUse" x="0" y="0" width="86" height="86">
<circle cx="43" cy="43" r="43" fill="white"/>
</mask>
<g mask="url(#mask0)">
<g clip-path="url(#clip0)">
<path d="M69.081 44.2976C67.3506 44.5653 65.6029 43.9312 64.447 42.6148C61.7096 40.1624 59.1 36.8544 55.3074 36.0701C52.5437 35.2601 49.5862 36.4668 48.178 38.9789C46.4958 42.2015 46.9522 47.7763 46.9522 51.2845C46.9522 53.1523 46.9663 55.0912 46.9663 56.9737L39.1379 60.0961C38.0828 60.5255 37.1759 61.254 36.5289 62.1917C36.0784 62.8509 35.7761 63.6005 35.6451 64.388H35.5591C35.545 59.8965 35.545 51.5978 35.545 48.7031C35.545 44.3689 30.7968 39.2073 26.7758 40.2907C26.933 39.792 25.5781 39.2645 25.5781 38.7228V30.1672C25.5781 29.055 26.6763 27.9998 26.1205 27.116C28.019 27.865 30.0953 28.0435 32.0946 27.6295C33.848 27.0165 34.7607 25.6758 36.0585 24.507C37.57 23.3723 39.4537 22.8479 41.3343 23.0379H49.6183C50.7697 23.0398 51.9186 23.1354 53.0546 23.3235C58.3747 24.2933 63.137 27.2238 66.4007 31.5363C68.1548 33.7679 69.5585 36.2537 70.5642 38.9076C71.2484 40.733 71.4763 43.6417 69.081 44.2976Z" fill="#A5A5A4"/>
<path d="M44.0998 85.7755C44.1018 86.9102 43.6512 87.9994 42.8489 88.8017C42.0466 89.6046 40.9575 90.0545 39.8227 90.0533H29.8417C27.4792 90.0533 25.564 88.138 25.564 85.7755C25.564 83.4129 27.4792 81.4977 29.8417 81.4977H39.8227C41.1192 81.4971 42.3464 82.0844 43.1589 83.0952C43.7744 83.852 44.1069 84.7999 44.0998 85.7755Z" fill="#FDD7AD"/>
<path d="M35.5591 64.388C35.545 64.5876 35.5591 64.7724 35.5591 64.9579V65.0009C35.5475 65.1338 35.543 65.2666 35.545 65.4001V72.9429H29.8417C27.4792 72.9429 25.564 71.0277 25.564 68.6651C25.564 66.3032 27.4792 64.388 29.8417 64.388H35.5591Z" fill="#FDD7AD"/>
<path d="M38.3683 81.4412V81.4977H29.8417C27.4792 81.4977 25.564 79.5825 25.564 77.2206C25.564 74.8581 27.4792 72.9429 29.8417 72.9429H35.545V78.5749C35.5353 80.1454 36.7978 81.4271 38.3683 81.4412Z" fill="#FDD7AD"/>
<path d="M85.464 67.2397V87.2017C85.4614 87.9879 84.8248 88.6252 84.0379 88.6272H70.849C70.1411 88.6227 69.4441 88.7998 68.8241 89.1406L61.567 94.5159C58.5742 96.8252 54.9812 98.2256 51.215 98.551C50.7445 98.594 50.2741 98.6082 49.8036 98.6082H39.8226C42.1852 98.6082 44.0997 96.693 44.0997 94.3304C44.0997 91.9685 42.1852 90.0533 39.8226 90.0533C42.1852 90.0533 44.0997 88.1381 44.0997 85.7755C44.0997 83.413 42.1852 81.4978 39.8226 81.4978H38.3682V81.4413C36.7977 81.4272 35.5352 80.1455 35.5449 78.5749V65.4002C35.5429 65.2667 35.5474 65.1338 35.559 65.001V64.958L35.645 64.388C35.7759 63.6005 36.0782 62.8509 36.5288 62.1917C37.1757 61.254 38.0826 60.5255 39.1378 60.0962L46.9661 56.9737L48.0213 56.5456C49.1573 56.0918 50.4333 56.1438 51.5288 56.6881L65.4879 65.3572C66.0809 65.6556 66.7349 65.8116 67.3986 65.8135H84.0379C84.8248 65.8161 85.4614 66.4528 85.464 67.2397Z" fill="#FDD7AD"/>
<path d="M61.9233 81.4978C61.9208 82.2846 61.2841 82.9213 60.4972 82.9239C54.224 82.9239 50.0605 78.9741 47.6222 75.5378C47.6036 78.6769 45.8989 81.5632 43.1589 83.0953C42.3464 82.0844 41.1192 81.4971 39.8227 81.4978H38.7104C38.8298 81.4573 38.955 81.4381 39.0814 81.4413C39.1527 81.4432 39.2246 81.4387 39.2952 81.4265C42.9593 80.8136 44.8129 78.4324 44.8129 74.369V70.0913C44.8142 69.4039 45.3065 68.816 45.9823 68.694C46.6607 68.574 47.3289 68.9501 47.5792 69.5919C47.6074 69.6921 51.6426 80.0723 60.4972 80.0723C61.2841 80.0742 61.9208 80.7115 61.9233 81.4978Z" fill="#CF976A"/>
<path d="M39.8224 91.4788H29.8414C26.6914 91.4788 24.1382 88.9256 24.1382 85.7755C24.1382 82.6254 26.6914 80.0723 29.8414 80.0723H39.8224C42.9719 80.0723 45.5257 82.6254 45.5257 85.7755C45.5257 88.9256 42.9719 91.4788 39.8224 91.4788ZM29.8414 82.9239C28.2664 82.9239 26.9898 84.2005 26.9898 85.7755C26.9898 87.3506 28.2664 88.6271 29.8414 88.6271H39.8224C41.3968 88.6259 42.6728 87.3499 42.6741 85.7755C42.6798 85.1305 42.4623 84.5041 42.0579 84.0015C41.5156 83.3212 40.6927 82.9245 39.8224 82.9239H29.8414Z" fill="#CF976A"/>
<path d="M35.5447 74.3691H29.8414C26.6914 74.3691 24.1382 71.8152 24.1382 68.6652C24.1382 65.5157 26.6914 62.9619 29.8414 62.9619H35.5588C35.9542 62.9619 36.3322 63.1262 36.6018 63.415C36.8713 63.7045 37.0087 64.0922 36.9817 64.4869C36.9772 64.5703 36.9772 64.655 36.9817 64.7385L36.9849 64.958C36.9849 65.0048 36.983 65.0941 36.9779 65.1403C36.9714 65.2269 36.9689 65.3136 36.9708 65.4002V72.9429C36.9708 73.321 36.8206 73.6836 36.553 73.9512C36.286 74.2189 35.9227 74.3691 35.5447 74.3691ZM29.8414 65.8135C29.0815 65.818 28.3543 66.1223 27.8178 66.6595C27.2857 67.1915 26.9872 67.9129 26.9898 68.6652C26.9911 70.2396 28.267 71.5155 29.8414 71.5168H34.1192V65.8135H29.8414Z" fill="#CF976A"/>
<path d="M38.3681 82.9239H29.8414C26.6914 82.9239 24.1382 80.3701 24.1382 77.2206C24.1382 74.0706 26.6914 71.5168 29.8414 71.5168H35.5447C36.3322 71.5168 36.9708 72.1554 36.9708 72.9429V78.5749C36.9599 79.3579 37.5844 80.0017 38.3674 80.0152C39.1549 80.0152 39.7929 80.6538 39.7929 81.4413V81.4978C39.7929 82.2853 39.1549 82.9233 38.3681 82.9239ZM29.8414 74.369C28.2664 74.369 26.9898 75.6456 26.9898 77.2206C26.9898 78.7957 28.2664 80.0723 29.8414 80.0723H34.3856C34.2084 79.5928 34.1186 79.0858 34.1192 78.5749V74.369H29.8414Z" fill="#CF976A"/>
<path d="M27.0043 30.1672V38.7228C27.0088 39.2542 26.9318 39.7831 26.7758 40.2907C25.996 43.0249 23.3202 44.7655 20.5046 44.3708C17.6889 43.9755 15.5952 41.5654 15.5972 38.7228V30.1672C15.5985 27.8605 16.9886 25.7817 19.1195 24.8985C21.2504 24.0154 23.7034 24.5025 25.3362 26.1321C25.6321 26.4273 25.8907 26.7579 26.1058 27.116H26.1205C26.6962 28.03 27.0024 29.0871 27.0043 30.1672Z" fill="#7F8284"/>
</g>
</g>
<defs>
<clipPath id="clip0">
<rect width="83" height="83" fill="white" transform="translate(9 23)"/>
</clipPath>
</defs>
</svg>
