<svg width="40" height="40" viewBox="0 0 40 40" fill="none" xmlns="http://www.w3.org/2000/svg">
<rect width="40" height="40" rx="20" fill="#1877F2"/>
<path d="M31.9981 19.9991C31.9981 13.3722 26.626 8 19.9991 8C13.3722 8 8 13.3722 8 19.9991C8 25.9882 12.3879 30.9522 18.1242 31.8524V23.4676H15.0776V19.9991H18.1242V17.3555C18.1242 14.3483 19.9156 12.6871 22.6564 12.6871C23.9692 12.6871 25.3424 12.9215 25.3424 12.9215V15.8744H23.8294C22.3388 15.8744 21.8739 16.7993 21.8739 17.7482V19.9991H25.2018L24.6698 23.4676H21.8739V31.8524C27.6103 30.9522 31.9981 25.9882 31.9981 19.9991Z" fill="white"/>
</svg>
