<svg width="40" height="40" viewBox="0 0 40 40" fill="none" xmlns="http://www.w3.org/2000/svg">
<rect width="40" height="40" rx="20" fill="#4680C2"/>
<path d="M23.684 8H16.316C9.592 8 8 9.592 8 16.316V23.684C8 30.408 9.592 32 16.316 32H23.684C30.408 32 32 30.408 32 23.684V16.316C32 9.592 30.391 8 23.684 8ZM27.376 25.123H25.632C24.972 25.123 24.768 24.598 23.582 23.396C22.549 22.396 22.092 22.261 21.838 22.261C21.482 22.261 21.38 22.363 21.38 22.854V24.429C21.38 24.853 21.245 25.107 20.127 25.107C18.281 25.107 16.231 23.989 14.792 21.905C12.624 18.857 12.03 16.57 12.03 16.096C12.03 15.842 12.132 15.605 12.623 15.605H14.367C14.807 15.605 14.977 15.808 15.147 16.282C16.01 18.772 17.45 20.957 18.043 20.957C18.263 20.957 18.365 20.855 18.365 20.297V17.721C18.297 16.535 17.67 16.434 17.67 16.011C17.67 15.807 17.84 15.604 18.11 15.604H20.854C21.227 15.604 21.362 15.807 21.362 16.247V19.72C21.362 20.092 21.532 20.228 21.633 20.228C21.853 20.228 22.04 20.092 22.446 19.686C23.7 18.28 24.597 16.112 24.597 16.112C24.716 15.858 24.919 15.621 25.36 15.621H27.104C27.629 15.621 27.748 15.891 27.629 16.264C27.409 17.281 25.275 20.295 25.275 20.295C25.089 20.6 25.021 20.735 25.275 21.075C25.461 21.329 26.071 21.854 26.478 22.328C27.223 23.175 27.798 23.886 27.951 24.378C28.121 24.868 27.866 25.122 27.375 25.122L27.376 25.123Z" fill="white"/>
</svg>
