<svg width="165" height="165" viewBox="0 0 165 165" fill="none" xmlns="http://www.w3.org/2000/svg">
<mask id="mask0" mask-type="alpha" maskUnits="userSpaceOnUse" x="0" y="0" width="165" height="165">
<circle cx="82.5" cy="82.5" r="82.5" fill="#FEE887"/>
</mask>
<g mask="url(#mask0)">
<g clip-path="url(#clip0)">
<path d="M149.596 84.3753L83.3289 39.4084C82.5266 38.864 81.4735 38.8637 80.6711 39.4084L14.4043 84.3753C13.7553 84.8154 13.3665 85.5487 13.3665 86.3333V178.633C13.3665 179.94 14.4262 181 15.733 181H148.266C149.574 181 150.633 179.94 150.633 178.633V86.3333C150.633 85.5487 150.245 84.8154 149.596 84.3753Z" fill="#F07B52"/>
<path d="M20.4667 178.633V86.3334C20.4667 85.5487 20.8556 84.8154 21.5046 84.375L85.5499 40.9155L83.3286 39.4082C82.5263 38.8638 81.4732 38.8635 80.6708 39.4082L14.4043 84.375C13.7553 84.8154 13.3665 85.549 13.3665 86.3334V178.633C13.3665 179.94 14.4262 181 15.733 181H22.833C21.5262 181 20.4667 179.941 20.4667 178.633Z" fill="#E5563C"/>
<path d="M124.6 95.8H39.3999C38.0928 95.8 37.0333 96.8598 37.0333 98.1666V178.633C37.0333 179.94 38.0931 181 39.3999 181H124.6C125.907 181 126.966 179.94 126.966 178.633V98.1669C126.967 96.8598 125.907 95.8 124.6 95.8Z" fill="#74757B"/>
<path d="M39.3999 95.8C38.0928 95.8 37.0333 96.8598 37.0333 98.1666V178.633C37.0333 179.94 38.0931 181 39.3999 181H44.1333V95.8H39.3999Z" fill="#606268"/>
<path d="M129.334 86.3335H34.667C33.3599 86.3335 32.3004 87.3932 32.3004 88.7001V98.1666C32.3004 99.4738 33.3601 100.533 34.667 100.533H129.334C130.641 100.533 131.7 99.4735 131.7 98.1666V88.7001C131.7 87.3932 130.64 86.3335 129.334 86.3335Z" fill="#C3C4C6"/>
<path d="M129.334 95.7999H34.667C33.3599 95.7999 32.3004 94.7402 32.3004 93.4333V98.1668C32.3004 99.4739 33.3601 100.533 34.667 100.533H129.334C130.641 100.533 131.7 99.4736 131.7 98.1668V93.4333C131.7 94.7407 130.64 95.7999 129.334 95.7999Z" fill="#AFB0B4"/>
<path d="M91.4669 60.3H72.5334C71.2263 60.3 70.1669 59.2403 70.1669 57.9335C70.1669 56.6263 71.2266 55.5669 72.5334 55.5669H91.4669C92.774 55.5669 93.8334 56.6266 93.8334 57.9335C93.8334 59.2406 92.7737 60.3 91.4669 60.3Z" fill="#E5563C"/>
<path d="M91.4669 69.7668H72.5334C71.2263 69.7668 70.1669 68.7071 70.1669 67.4003C70.1669 66.0934 71.2266 65.0337 72.5334 65.0337H91.4669C92.774 65.0337 93.8334 66.0934 93.8334 67.4003C93.8334 68.7071 92.7737 69.7668 91.4669 69.7668Z" fill="#E5563C"/>
<path d="M91.4669 79.2334H72.5334C71.2263 79.2334 70.1669 78.1737 70.1669 76.8668C70.1669 75.5597 71.2266 74.5002 72.5334 74.5002H91.4669C92.774 74.5002 93.8334 75.56 93.8334 76.8668C93.8334 78.1737 92.7737 79.2334 91.4669 79.2334Z" fill="#E5563C"/>
<path d="M67.7999 114.733H39.3999C38.0928 114.733 37.0333 115.793 37.0333 117.1V145.5C37.0333 146.807 38.0931 147.867 39.3999 147.867L53.5999 150.233L67.7999 147.867C69.107 147.867 70.1665 146.807 70.1665 145.5V117.1C70.1667 115.793 69.1073 114.733 67.7999 114.733Z" fill="#FDDD85"/>
<path d="M67.7999 147.867H39.3999C38.0928 147.867 37.0333 148.927 37.0333 150.234V178.634C37.0333 179.941 38.0931 181 39.3999 181H67.7999C69.107 181 70.1665 179.94 70.1665 178.634V150.234C70.1667 148.927 69.1073 147.867 67.7999 147.867Z" fill="#FDDD85"/>
<path d="M41.7668 178.634V150.234C41.7668 148.926 42.8265 147.867 44.1333 147.867H39.3999C38.0928 147.867 37.0333 148.927 37.0333 150.234V178.634C37.0333 179.941 38.0931 181 39.3999 181H44.1333C42.8262 181 41.7668 179.941 41.7668 178.634Z" fill="#FDD042"/>
<path d="M58.3333 147.867H48.8667V159.7C48.8667 161.007 49.9264 162.067 51.2333 162.067H55.9667C57.2738 162.067 58.3333 161.007 58.3333 159.7V147.867Z" fill="#F2C127"/>
<path d="M41.7668 145.5V117.1C41.7668 115.793 42.8265 114.733 44.1333 114.733H39.3999C38.0928 114.733 37.0333 115.793 37.0333 117.1V145.5C37.0333 146.807 38.0931 147.867 39.3999 147.867H44.1333C42.8262 147.867 41.7668 146.807 41.7668 145.5Z" fill="#FDD042"/>
<path d="M58.3333 114.733H48.8667V126.567C48.8667 127.874 49.9264 128.933 51.2333 128.933H55.9667C57.2738 128.933 58.3333 127.874 58.3333 126.567V114.733Z" fill="#F2C127"/>
<path d="M58.3334 143.134H48.8668C47.5597 143.134 46.5002 142.074 46.5002 140.767C46.5002 139.46 47.56 138.4 48.8668 138.4H58.3334C59.6405 138.4 60.7 139.46 60.7 140.767C60.7 142.074 59.6405 143.134 58.3334 143.134Z" fill="#74757B"/>
<path d="M100.933 147.867H72.5334C71.2263 147.867 70.1669 148.927 70.1669 150.234V178.634C70.1669 179.941 71.2266 181 72.5334 181H100.933C102.241 181 103.3 179.94 103.3 178.634V150.234C103.3 148.927 102.241 147.867 100.933 147.867Z" fill="#FDDD85"/>
<path d="M74.8999 178.634V150.234C74.8999 148.926 75.9597 147.867 77.2665 147.867H72.5331C71.226 147.867 70.1665 148.927 70.1665 150.234V178.634C70.1665 179.941 71.2262 181 72.5331 181H77.2665C75.9597 181 74.8999 179.941 74.8999 178.634Z" fill="#FDD042"/>
<path d="M91.4669 147.867H82V159.7C82 161.007 83.0597 162.067 84.3666 162.067H89.1C90.4071 162.067 91.4666 161.007 91.4666 159.7V147.867H91.4669Z" fill="#F2C127"/>
</g>
</g>
<defs>
<clipPath id="clip0">
<rect width="142" height="142" fill="white" transform="translate(11 39)"/>
</clipPath>
</defs>
</svg>
