<svg width="105" height="105" viewBox="0 0 105 105" fill="none" xmlns="http://www.w3.org/2000/svg">
<circle cx="52.5" cy="52.5" r="52.5" fill="#FEE887"/>
<mask id="mask0" mask-type="alpha" maskUnits="userSpaceOnUse" x="0" y="0" width="105" height="105">
<circle cx="52.5" cy="52.5" r="52.5" fill="white"/>
</mask>
<g mask="url(#mask0)">
<path d="M67.6271 22.5066C67.6271 14.4949 61.1322 8 53.1203 8C45.1084 8 38.6135 14.4949 38.6135 22.5066C38.6135 29.9889 44.2787 36.1462 51.5532 36.9278C51.5516 36.9563 51.5489 36.9845 51.5489 37.0134V47.6606C51.5489 48.5283 52.2524 49.2319 53.1203 49.2319C53.9883 49.2319 54.6917 48.5285 54.6917 47.6606V37.0134C54.6917 36.9845 54.6888 36.9563 54.6874 36.9278C61.9619 36.1462 67.6271 29.9889 67.6271 22.5066Z" fill="#CCF49F"/>
<path d="M50.2144 28.898C49.8122 28.898 49.4102 28.7446 49.1033 28.4377L45.8891 25.2235C45.2754 24.6098 45.2754 23.6149 45.8891 23.0013C46.5027 22.3876 47.4976 22.3876 48.1113 23.0013L50.2144 25.1044L58.1294 17.1895C58.743 16.5758 59.7379 16.5758 60.3516 17.1895C60.9652 17.8031 60.9652 18.798 60.3516 19.4117L51.3257 28.4375C51.0188 28.7446 50.6166 28.898 50.2144 28.898Z" fill="#95D5A4"/>
<path d="M53.1203 54.5204C53.9882 54.5204 54.6917 53.8169 54.6917 52.9491C54.6917 52.0812 53.9882 51.3777 53.1203 51.3777C52.2525 51.3777 51.549 52.0812 51.549 52.9491C51.549 53.8169 52.2525 54.5204 53.1203 54.5204Z" fill="#CCF49F"/>
<path d="M61.382 67.4768C64.3431 67.4768 66.7436 65.0763 66.7436 62.1151C66.7436 59.1539 64.3431 56.7534 61.382 56.7534C58.4208 56.7534 56.0203 59.1539 56.0203 62.1151C56.0203 65.0763 58.4208 67.4768 61.382 67.4768Z" fill="#633C3E"/>
<path d="M64.5742 112H41.3712C37.7867 112 35.0882 108.736 35.7628 105.216L36.6742 100.454C36.936 99.088 37.4662 97.8142 38.2181 96.6954C39.406 94.9126 41.1492 93.5193 43.2317 92.7629L53.0387 89.2056L62.7703 92.7357C64.8633 93.4962 66.6126 94.9 67.8027 96.6974V96.6995C68.5652 97.8455 69.0974 99.1485 69.3489 100.548L70.1953 105.283C70.8215 108.784 68.1315 112 64.5742 112Z" fill="#FEE07D"/>
<path d="M58.4053 91.1662L52.9183 95.9558L47.4349 91.1662V83.8132H58.4053V91.1662Z" fill="#ECBD83"/>
<path d="M61.6325 70.8433V77.0752C61.6325 81.962 57.6332 86.0777 52.7474 85.9834C48.0126 85.892 44.204 82.0258 44.204 77.2702V70.8435C44.204 66.0307 48.1054 63.519 52.9182 63.519C57.7311 63.519 61.6325 66.0307 61.6325 70.8433Z" fill="#F7D4AD"/>
<path d="M43.8604 103.586V112H41.3715C37.7869 112 35.0884 108.736 35.763 105.216L36.6744 100.454C36.9362 99.0882 37.4664 97.8144 38.2184 96.6956C41.4383 97.3389 43.8604 100.18 43.8604 103.586Z" fill="#FFC269"/>
<path d="M64.5743 112H62.1754V103.586C62.1754 100.186 64.591 97.3471 67.8028 96.6997C68.5653 97.8457 69.0975 99.1488 69.349 100.548L70.1954 105.283C70.8216 108.784 68.1316 112 64.5743 112Z" fill="#FFC269"/>
<path d="M61.6326 70.8434C61.6326 66.0306 57.7312 62.1292 52.9184 62.1292C48.1055 62.1292 44.2041 66.0306 44.2041 70.8434V72.7751C44.4736 72.8243 44.7509 72.8513 45.0345 72.8513C47.2368 72.8513 49.0773 71.3031 49.527 69.2357C49.5922 68.9357 49.9877 68.8597 50.1609 69.1132C51.3307 70.8247 54.4227 74.3955 59.2551 73.2076C59.3609 73.1816 59.4602 73.1326 59.5624 73.0918C60.278 72.8052 61.0551 72.3524 61.6326 71.9003V71.4428V70.8434Z" fill="#6E4848"/>
<path d="M30.0015 112H6.79873C3.21418 112 0.515664 108.736 1.19024 105.216L2.10166 100.454C2.36349 99.0882 2.89365 97.8144 3.64562 96.6956C4.83349 94.9128 6.57671 93.5196 8.65915 92.7631L18.4662 89.2058L28.1977 92.7359C30.2907 93.4964 32.0401 94.9002 33.2302 96.6977V96.6997C33.9927 97.8457 34.5249 99.1488 34.7763 100.548L35.6228 105.283C36.249 108.784 33.559 112 30.0015 112Z" fill="#B8B6FF"/>
<path d="M23.8328 91.1664L23.8308 91.1682C20.6888 93.911 16.0036 93.9102 12.8624 91.1664V83.8135H23.8328V91.1664Z" fill="#ECBD83"/>
<path d="M27.06 70.8436V77.0754C27.06 81.9622 23.0607 86.0779 18.1749 85.9837C13.4401 85.8923 9.63147 82.026 9.63147 77.2704V70.8438C9.63147 66.0309 13.5329 63.5193 18.3457 63.5193C23.1584 63.5193 27.06 66.0309 27.06 70.8436Z" fill="#F7D4AD"/>
<path d="M9.28762 103.586V112H6.79873C3.21418 112 0.515663 108.736 1.19024 105.216L2.10166 100.454C2.36349 99.0884 2.89365 97.8146 3.64562 96.6958C6.86576 97.3391 9.28762 100.18 9.28762 103.586Z" fill="#A09EEF"/>
<path d="M30.0014 112H27.6025V103.587C27.6025 100.186 30.0181 97.3473 33.2299 96.7C33.9924 97.846 34.5246 99.149 34.7761 100.549L35.6225 105.283C36.249 108.784 33.559 112 30.0014 112Z" fill="#A09EEF"/>
<path d="M27.06 70.4185C26.7337 70.669 26.4908 70.8485 26.4908 70.8485C25.8735 71.2052 25.2032 71.5314 24.4847 71.8199C21.2167 73.1276 18.0217 73.1757 16.4761 72.0931C16.4761 72.0931 14.8623 70.889 14.2578 70.1201C13.6533 69.3511 11.7309 69.1563 10.1372 70.8487C9.97024 71.0259 9.80083 71.1423 9.63123 71.2105V70.8487C9.63123 66.0324 13.5343 62.1294 18.3506 62.1294C20.7586 62.1294 22.9392 63.1058 24.515 64.6843C25.9999 66.1665 26.9511 68.1799 27.06 70.4185Z" fill="#6E4848"/>
<path d="M99.2019 112H75.9989C72.4144 112 69.7159 108.736 70.3904 105.216L71.3019 100.454C71.5637 99.0882 72.0938 97.8144 72.8458 96.6956C74.0337 94.9128 75.7769 93.5196 77.8593 92.7631L87.6664 89.2058L97.3979 92.7359C99.4909 93.4964 101.24 94.9002 102.43 96.6977V96.6997C103.193 97.8457 103.725 99.1488 103.977 100.548L104.823 105.283C105.449 108.784 102.759 112 99.2019 112Z" fill="#C2DDFF"/>
<path d="M93.033 91.1664L93.031 91.1682C89.889 93.911 85.2037 93.9102 82.0626 91.1664V83.8135H93.033V91.1664Z" fill="#ECBD83"/>
<path d="M96.2602 70.8436V77.0754C96.2602 81.9622 92.2609 86.0779 87.3751 85.9837C82.6403 85.8923 78.8317 82.026 78.8317 77.2704V70.8438C78.8317 66.0309 82.7331 63.5193 87.5459 63.5193C92.3588 63.5193 96.2602 66.0309 96.2602 70.8436Z" fill="#F7D4AD"/>
<path d="M78.4881 103.586V112H75.9992C72.4146 112 69.7161 108.736 70.3907 105.216L71.3021 100.454C71.5639 99.0884 72.0941 97.8146 72.8461 96.6958C76.0662 97.3391 78.4881 100.18 78.4881 103.586Z" fill="#A4CCFF"/>
<path d="M99.2016 112H96.8027V103.587C96.8027 100.186 99.2183 97.3473 102.43 96.7C103.193 97.846 103.725 99.149 103.976 100.549L104.823 105.283C105.449 108.784 102.759 112 99.2016 112Z" fill="#A4CCFF"/>
<path d="M96.2603 70.4185C95.9339 70.669 95.6911 70.8485 95.6911 70.8485C95.0738 71.2052 94.4035 71.5314 93.6851 71.8199C90.417 73.1276 87.222 73.1757 85.6764 72.0931C85.6764 72.0931 84.0626 70.889 83.4581 70.1201C82.8536 69.3511 80.9312 69.1563 79.3375 70.8487C79.1706 71.0259 79.0012 71.1423 78.8315 71.2105V70.8487C78.8315 66.0324 82.7346 62.1294 87.5509 62.1294C89.9589 62.1294 92.1395 63.1058 93.7153 64.6843C95.2004 66.1665 96.1516 68.1799 96.2603 70.4185Z" fill="#6E4848"/>
</g>
</svg>
