<svg width="105" height="105" viewBox="0 0 105 105" fill="none" xmlns="http://www.w3.org/2000/svg">
<circle cx="52.5" cy="52.5" r="52.5" fill="#F8F8F8"/>
<mask id="mask0" mask-type="alpha" maskUnits="userSpaceOnUse" x="0" y="0" width="105" height="105">
<circle cx="52.5" cy="52.5" r="52.5" fill="white"/>
</mask>
<g mask="url(#mask0)">
<path d="M104 53C104 55.4431 103.833 57.848 103.503 60.2014C102.803 65.2653 101.372 70.0966 99.3242 74.5828C91.1254 92.5284 73.0187 105 52 105C30.9813 105 12.8746 92.5284 4.67584 74.5828C2.62793 70.0966 1.19733 65.2653 0.496704 60.2014C0.167419 57.848 0 55.4431 0 53C0 24.2808 23.2808 1 52 1C80.7192 1 104 24.2808 104 53Z" fill="#FEE887"/>
<path d="M100.875 63.546V68.7264H3.12549V63.546C3.12549 60.2309 3.45398 56.992 4.08478 53.861C7.62598 36.2439 20.6395 22.0545 37.5853 16.8336C42.1398 15.4283 46.9822 14.6714 52.0001 14.6714C52.3024 14.6714 52.6039 14.6761 52.9014 14.6849C79.4783 15.1625 100.875 36.8564 100.875 63.546Z" fill="#125699"/>
<path d="M100.875 63.5459V66.9244H52.9014V14.6848C79.4782 15.1625 100.875 36.8564 100.875 63.5459Z" fill="#2385EC"/>
<path d="M37.5853 16.8335V53.861H4.08398C7.62598 36.2438 20.6403 22.0544 37.5853 16.8335Z" fill="#2385EC"/>
<path d="M77.2256 67.825L74.527 80.4996C73.8105 83.8782 70.8248 86.2943 67.3685 86.2943H36.6276C33.1752 86.2943 30.1902 83.8782 29.469 80.4996L26.7744 67.825H77.2256Z" fill="#125699"/>
<path d="M75.3341 76.7156L74.5272 80.4996C73.8107 83.8781 70.8249 86.2942 67.3686 86.2942H41.6971C38.2448 86.2942 35.2598 83.8781 34.5393 80.4996C34.1251 78.55 35.6121 76.7156 37.6044 76.7156H75.3341Z" fill="#2385EC"/>
<path d="M103.503 60.2014C102.803 65.2652 101.372 70.0966 99.324 74.5828H4.67572C2.62781 70.0966 1.1972 65.2652 0.496582 60.2014C0.681458 60.1783 0.86792 60.1672 1.05914 60.1672H102.941C103.132 60.1672 103.318 60.1783 103.503 60.2014Z" fill="#2385EC"/>
<path d="M26.1403 74.5828H4.67572C2.62781 70.0966 1.1972 65.2652 0.496582 60.2014C0.679077 60.1783 0.86792 60.1672 1.05676 60.1672H26.1403C23.5505 60.1672 21.4518 62.2683 21.4518 64.8558V69.8926C21.4518 72.4817 23.5505 74.5828 26.1403 74.5828Z" fill="#125699"/>
<path d="M37.5853 16.8335V18.6759C27.4418 24.9418 19.8412 38.0132 17.6093 53.861L10.8577 56.9483L4.08398 53.861C7.62598 36.2438 20.6403 22.0544 37.5853 16.8335Z" fill="#125699"/>
<path d="M56.3622 9.30664H47.6365C45.568 9.30664 43.8906 10.984 43.8906 13.0526V68.7263H60.1073V13.0526C60.1073 10.984 58.4307 9.30664 56.3622 9.30664Z" fill="#2385EC"/>
<path d="M81.7584 41.1855C78.0942 41.1855 75.1235 44.1562 75.1235 47.8204C75.1235 51.4846 78.0934 54.4553 81.7584 54.4553C85.4226 54.4553 88.3933 51.4854 88.3933 47.8204C88.3933 44.1562 85.4226 41.1855 81.7584 41.1855Z" fill="#5EAEF4"/>
</g>
</svg>
