<svg width="361" height="178" viewBox="0 0 361 178" fill="none" xmlns="http://www.w3.org/2000/svg">
<path d="M211.534 0C194.555 0 180.79 20.4143 180.79 45.5956C180.79 70.7769 194.555 91.1896 211.534 91.1896H289.697V0H211.534Z" fill="#B2785B"/>
<path d="M242.857 52.1081C211.744 52.3019 191.305 43.9158 181.177 38.3376C180.923 40.7006 180.79 43.1259 180.79 45.5956C180.79 70.7769 194.555 91.1896 211.534 91.1896H289.697V58.8357C275.385 54.9555 259.105 52.0063 242.857 52.1081Z" fill="#935B45"/>
<path d="M238.824 33.7301H279.809V14.6311H238.824C233.55 14.6311 229.275 18.9071 229.275 24.1814C229.274 29.4558 233.55 33.7301 238.824 33.7301Z" fill="#935B45"/>
<path d="M320.44 45.5956C320.44 20.4143 306.676 0 289.697 0C272.717 0 258.953 20.4143 258.953 45.5956C258.953 70.7769 272.717 91.1896 289.697 91.1896C306.676 91.1896 320.44 70.7769 320.44 45.5956Z" fill="#C68D6D"/>
<path d="M316.563 67.7816C302.172 62.1082 281.372 55.3478 259.353 52.9783C261.734 74.6472 274.413 91.1911 289.697 91.1911C301.246 91.1895 311.307 81.7459 316.563 67.7816Z" fill="#B2785B"/>
<path d="M301.381 45.5957C301.381 33.5494 296.151 23.7839 289.697 23.7839C283.244 23.7839 278.012 33.5494 278.012 45.5957C278.012 57.6403 283.244 67.4057 289.697 67.4057C296.151 67.4057 301.381 57.6403 301.381 45.5957Z" fill="#B2785B"/>
<path d="M289.697 67.4073C292.871 67.4073 295.753 65.0394 297.858 61.2035C292.126 59.4301 285.957 57.7502 279.523 56.3298C281.53 62.9392 285.336 67.4073 289.697 67.4073Z" fill="#935B45"/>
<path d="M207.812 31.0417H182.389C181.351 35.6133 180.79 40.5067 180.79 45.5955C180.79 47.1292 180.84 48.6465 180.941 50.1424H208.04C213.429 50.1424 217.777 45.6776 217.584 40.244C217.4 35.0698 212.989 31.0417 207.812 31.0417Z" fill="#935B45"/>
<path d="M219.526 76.5604H233.307C238.581 76.5604 242.857 72.2844 242.857 67.01C242.857 61.7357 238.581 57.4597 233.307 57.4597H219.526C214.252 57.4597 209.976 61.7357 209.976 67.01C209.976 72.2844 214.252 76.5604 219.526 76.5604Z" fill="#7C4737"/>
<path d="M251.957 86.7987C234.978 86.7987 221.214 107.213 221.214 132.394C221.214 157.576 234.978 177.99 251.957 177.99H330.12V86.7987H251.957Z" fill="#C68D6D"/>
<path d="M330.12 163.832C315.061 155.768 296.865 147.363 279.557 142.828C254.399 136.233 235.775 120.23 225.444 109.298C222.755 116.072 221.214 123.965 221.214 132.394C221.214 157.575 234.978 177.99 251.957 177.99H330.12V163.832Z" fill="#B2785B"/>
<path d="M360.865 132.394C360.865 107.213 347.101 86.7987 330.12 86.7987C313.141 86.7987 299.377 107.213 299.377 132.394C299.377 157.576 313.141 177.99 330.12 177.99C347.101 177.99 360.865 157.576 360.865 132.394Z" fill="#DD9F80"/>
<path d="M341.805 132.394C341.805 120.348 336.574 110.583 330.12 110.583C323.667 110.583 318.437 120.348 318.437 132.394C318.437 144.441 323.667 154.204 330.12 154.204C336.574 154.204 341.805 144.441 341.805 132.394Z" fill="#C68D6D"/>
<path d="M176.379 86.7987C159.4 86.7987 145.634 107.213 145.634 132.394C145.634 157.576 159.4 177.99 176.379 177.99H254.542V86.7987H176.379Z" fill="#DD9F80"/>
<path d="M176.982 148.243C160.687 134.754 155.799 112.364 154.336 100.61C148.951 108.822 145.634 120.034 145.634 132.394C145.634 157.575 159.4 177.99 176.379 177.99H204.731C198.186 169.218 188.647 157.901 176.982 148.243Z" fill="#C68D6D"/>
<path d="M201.873 157.792H242.857V138.693H201.873C196.598 138.693 192.322 142.969 192.322 148.244C192.322 153.518 196.598 157.792 201.873 157.792Z" fill="#C68D6D"/>
<path d="M285.285 132.394C285.285 107.213 271.521 86.7987 254.542 86.7987C237.561 86.7987 223.797 107.213 223.797 132.394C223.797 157.576 237.561 177.99 254.542 177.99C271.521 177.99 285.285 157.576 285.285 132.394Z" fill="#EAB9A4"/>
<path d="M266.225 132.394C266.225 120.348 260.995 110.583 254.542 110.583C248.089 110.583 242.857 120.348 242.857 132.394C242.857 144.441 248.089 154.204 254.542 154.204C260.995 154.204 266.225 144.441 266.225 132.394Z" fill="#DD9F80"/>
<path d="M175.111 115.955H147.693C146.363 121.057 145.634 126.596 145.634 132.394C145.634 133.287 145.652 134.174 145.685 135.056H175.111C180.386 135.056 184.662 130.782 184.662 125.506C184.662 120.231 180.387 115.955 175.111 115.955Z" fill="#C68D6D"/>
<path d="M208.04 50.1425C209.48 50.1425 210.846 49.824 212.071 49.2525C197.741 46.3493 187.468 41.8008 181.177 38.3376C180.921 40.7006 180.79 43.1243 180.79 45.594C180.79 47.1293 180.84 48.6466 180.941 50.1425H208.04Z" fill="#7C4737"/>
<path d="M165.684 135.056C161.837 128.819 159.226 122.13 157.454 115.957H147.693C146.363 121.057 145.634 126.596 145.634 132.394C145.634 133.288 145.652 134.174 145.685 135.056H165.684Z" fill="#B2785B"/>
<path d="M330.12 177.99C335.541 177.99 340.633 175.908 345.055 172.257C333.583 165.459 318.089 157.029 301.872 150.414C306.581 166.632 317.458 177.99 330.12 177.99Z" fill="#C68D6D"/>
<path d="M138.332 0C121.352 0 107.587 20.4143 107.587 45.5956C107.587 70.7769 121.352 91.1896 138.332 91.1896H216.494V0H138.332Z" fill="#B2785B"/>
<path d="M169.654 52.1081C138.542 52.3019 118.103 43.9158 107.974 38.3376C107.72 40.7006 107.587 43.1259 107.587 45.5956C107.587 70.7769 121.352 91.1896 138.332 91.1896H216.494V58.8357C202.182 54.9555 185.903 52.0063 169.654 52.1081Z" fill="#935B45"/>
<path d="M165.621 33.7301H206.606V14.6311H165.621C160.347 14.6311 156.073 18.9071 156.073 24.1814C156.071 29.4558 160.347 33.7301 165.621 33.7301Z" fill="#935B45"/>
<path d="M247.238 45.5956C247.238 20.4143 233.474 0 216.495 0C199.514 0 185.75 20.4143 185.75 45.5956C185.75 70.7769 199.514 91.1896 216.495 91.1896C233.474 91.1896 247.238 70.7769 247.238 45.5956Z" fill="#C68D6D"/>
<path d="M243.361 67.7816C228.97 62.1082 208.17 55.3478 186.151 52.9783C188.532 74.6472 201.21 91.1911 216.495 91.1911C228.044 91.1895 238.105 81.7459 243.361 67.7816Z" fill="#B2785B"/>
<path d="M228.178 45.5957C228.178 33.5494 222.948 23.7839 216.495 23.7839C210.041 23.7839 204.81 33.5494 204.81 45.5957C204.81 57.6403 210.041 67.4057 216.495 67.4057C222.948 67.4057 228.178 57.6403 228.178 45.5957Z" fill="#B2785B"/>
<path d="M216.495 67.4073C219.669 67.4073 222.551 65.0394 224.656 61.2035C218.923 59.4301 212.754 57.7502 206.32 56.3298C208.327 62.9392 212.133 67.4073 216.495 67.4073Z" fill="#935B45"/>
<path d="M134.609 31.0417H109.186C108.149 35.6133 107.587 40.5067 107.587 45.5955C107.587 47.1292 107.638 48.6465 107.738 50.1424H134.837C140.227 50.1424 144.575 45.6776 144.381 40.244C144.197 35.0698 139.786 31.0417 134.609 31.0417Z" fill="#935B45"/>
<path d="M146.324 76.5604H160.104C165.378 76.5604 169.654 72.2844 169.654 67.01C169.654 61.7357 165.378 57.4597 160.104 57.4597H146.324C141.049 57.4597 136.773 61.7357 136.773 67.01C136.773 72.2844 141.049 76.5604 146.324 76.5604Z" fill="#7C4737"/>
<path d="M178.755 86.7987C161.776 86.7987 148.012 107.213 148.012 132.394C148.012 157.576 161.776 177.99 178.755 177.99H256.918V86.7987H178.755Z" fill="#C68D6D"/>
<path d="M256.918 163.832C241.858 155.768 223.662 147.363 206.355 142.828C181.196 136.233 162.572 120.23 152.242 109.298C149.552 116.072 148.012 123.965 148.012 132.394C148.012 157.575 161.776 177.99 178.755 177.99H256.918V163.832Z" fill="#B2785B"/>
<path d="M287.662 132.394C287.662 107.213 273.899 86.7987 256.918 86.7987C239.939 86.7987 226.175 107.213 226.175 132.394C226.175 157.576 239.939 177.99 256.918 177.99C273.899 177.99 287.662 157.576 287.662 132.394Z" fill="#DD9F80"/>
<path d="M268.603 132.394C268.603 120.348 263.371 110.583 256.918 110.583C250.464 110.583 245.234 120.348 245.234 132.394C245.234 144.441 250.464 154.204 256.918 154.204C263.371 154.204 268.603 144.441 268.603 132.394Z" fill="#C68D6D"/>
<path d="M103.177 86.7987C86.1977 86.7987 72.4321 107.213 72.4321 132.394C72.4321 157.576 86.1977 177.99 103.177 177.99H181.34V86.7987H103.177Z" fill="#DD9F80"/>
<path d="M103.779 148.243C87.4851 134.754 82.5966 112.364 81.1335 100.61C75.7491 108.822 72.4321 120.034 72.4321 132.394C72.4321 157.575 86.1977 177.99 103.177 177.99H131.529C124.984 169.218 115.445 157.901 103.779 148.243Z" fill="#C68D6D"/>
<path d="M128.67 157.792H169.655V138.693H128.67C123.396 138.693 119.12 142.969 119.12 148.244C119.12 153.518 123.396 157.792 128.67 157.792Z" fill="#C68D6D"/>
<path d="M212.082 132.394C212.082 107.213 198.318 86.7987 181.339 86.7987C164.359 86.7987 150.595 107.213 150.595 132.394C150.595 157.576 164.359 177.99 181.339 177.99C198.318 177.99 212.082 157.576 212.082 132.394Z" fill="#EAB9A4"/>
<path d="M193.023 132.394C193.023 120.348 187.793 110.583 181.339 110.583C174.886 110.583 169.654 120.348 169.654 132.394C169.654 144.441 174.886 154.204 181.339 154.204C187.793 154.204 193.023 144.441 193.023 132.394Z" fill="#DD9F80"/>
<path d="M101.909 115.955H74.4913C73.1612 121.057 72.4321 126.596 72.4321 132.394C72.4321 133.287 72.4502 134.174 72.483 135.056H101.909C107.183 135.056 111.459 130.782 111.459 125.506C111.459 120.231 107.185 115.955 101.909 115.955Z" fill="#C68D6D"/>
<path d="M134.837 50.1425C136.277 50.1425 137.644 49.824 138.869 49.2525C124.538 46.3493 114.265 41.8008 107.974 38.3376C107.718 40.7006 107.587 43.1243 107.587 45.594C107.587 47.1293 107.638 48.6466 107.738 50.1425H134.837Z" fill="#7C4737"/>
<path d="M92.4819 135.056C88.6345 128.819 86.0236 122.13 84.2518 115.957H74.4913C73.1612 121.057 72.4321 126.596 72.4321 132.394C72.4321 133.288 72.4502 134.174 72.483 135.056H92.4819Z" fill="#B2785B"/>
<path d="M256.918 177.99C262.338 177.99 267.43 175.908 271.852 172.257C260.381 165.459 244.886 157.029 228.669 150.414C233.378 166.632 244.256 177.99 256.918 177.99Z" fill="#C68D6D"/>
<path d="M65.8999 0C48.9208 0 35.1553 20.4143 35.1553 45.5956C35.1553 70.7769 48.9208 91.1896 65.8999 91.1896H144.063V0H65.8999Z" fill="#B2785B"/>
<path d="M97.2226 52.1081C66.1101 52.3019 45.6711 43.9158 35.5428 38.3376C35.2883 40.7006 35.1553 43.1259 35.1553 45.5956C35.1553 70.7769 48.9208 91.1896 65.8999 91.1896H144.063V58.8357C129.75 54.9555 113.471 52.0063 97.2226 52.1081Z" fill="#935B45"/>
<path d="M93.1898 33.7301H134.174V14.6311H93.1898C87.9154 14.6311 83.6411 18.9071 83.6411 24.1814C83.6395 29.4558 87.9154 33.7301 93.1898 33.7301Z" fill="#935B45"/>
<path d="M174.806 45.5956C174.806 20.4143 161.042 0 144.063 0C127.082 0 113.318 20.4143 113.318 45.5956C113.318 70.7769 127.082 91.1896 144.063 91.1896C161.042 91.1896 174.806 70.7769 174.806 45.5956Z" fill="#C68D6D"/>
<path d="M170.929 67.7816C156.538 62.1082 135.737 55.3478 113.719 52.9783C116.1 74.6472 128.778 91.1911 144.063 91.1911C155.611 91.1895 165.672 81.7459 170.929 67.7816Z" fill="#B2785B"/>
<path d="M155.746 45.5957C155.746 33.5494 150.516 23.7839 144.062 23.7839C137.609 23.7839 132.377 33.5494 132.377 45.5957C132.377 57.6403 137.609 67.4057 144.062 67.4057C150.516 67.4057 155.746 57.6403 155.746 45.5957Z" fill="#B2785B"/>
<path d="M144.063 67.4073C147.237 67.4073 150.119 65.0394 152.224 61.2035C146.492 59.4301 140.322 57.7502 133.889 56.3298C135.895 62.9392 139.702 67.4073 144.063 67.4073Z" fill="#935B45"/>
<path d="M62.1773 31.0417H36.7547C35.7169 35.6133 35.1553 40.5067 35.1553 45.5955C35.1553 47.1292 35.2062 48.6465 35.3063 50.1424H62.4056C67.7949 50.1424 72.1431 45.6776 71.9493 40.244C71.7654 35.0698 67.3548 31.0417 62.1773 31.0417Z" fill="#935B45"/>
<path d="M73.8916 76.5604H87.672C92.9463 76.5604 97.2223 72.2844 97.2223 67.01C97.2223 61.7357 92.9463 57.4597 87.672 57.4597H73.8916C68.6173 57.4597 64.3413 61.7357 64.3413 67.01C64.3413 72.2844 68.6173 76.5604 73.8916 76.5604Z" fill="#7C4737"/>
<path d="M106.323 86.7987C89.3435 86.7987 75.5796 107.213 75.5796 132.394C75.5796 157.576 89.3435 177.99 106.323 177.99H184.485V86.7987H106.323Z" fill="#C68D6D"/>
<path d="M184.485 163.832C169.426 155.768 151.23 147.363 133.923 142.828C108.764 136.233 90.1399 120.23 79.8096 109.298C77.1199 116.072 75.5796 123.965 75.5796 132.394C75.5796 157.575 89.3435 177.99 106.323 177.99H184.485V163.832Z" fill="#B2785B"/>
<path d="M215.231 132.394C215.231 107.213 201.467 86.7987 184.486 86.7987C167.507 86.7987 153.743 107.213 153.743 132.394C153.743 157.576 167.507 177.99 184.486 177.99C201.467 177.99 215.231 157.576 215.231 132.394Z" fill="#DD9F80"/>
<path d="M196.171 132.394C196.171 120.348 190.939 110.583 184.486 110.583C178.032 110.583 172.802 120.348 172.802 132.394C172.802 144.441 178.032 154.204 184.486 154.204C190.939 154.204 196.171 144.441 196.171 132.394Z" fill="#C68D6D"/>
<path d="M30.7446 86.7987C13.7655 86.7987 0 107.213 0 132.394C0 157.576 13.7655 177.99 30.7446 177.99H108.908V86.7987H30.7446Z" fill="#DD9F80"/>
<path d="M31.3473 148.243C15.0529 134.754 10.1645 112.364 8.70137 100.61C3.317 108.822 0 120.034 0 132.394C0 157.575 13.7655 177.99 30.7446 177.99H59.0967C52.5514 169.218 43.0126 157.901 31.3473 148.243Z" fill="#C68D6D"/>
<path d="M56.2378 157.792H97.2225V138.693H56.2378C50.9635 138.693 46.6875 142.969 46.6875 148.244C46.6875 153.518 50.9635 157.792 56.2378 157.792Z" fill="#C68D6D"/>
<path d="M139.651 132.394C139.651 107.213 125.887 86.7987 108.908 86.7987C91.927 86.7987 78.1631 107.213 78.1631 132.394C78.1631 157.576 91.927 177.99 108.908 177.99C125.887 177.99 139.651 157.576 139.651 132.394Z" fill="#EAB9A4"/>
<path d="M120.591 132.394C120.591 120.348 115.361 110.583 108.908 110.583C102.454 110.583 97.2227 120.348 97.2227 132.394C97.2227 144.441 102.454 154.204 108.908 154.204C115.361 154.204 120.591 144.441 120.591 132.394Z" fill="#DD9F80"/>
<path d="M29.477 115.955H2.05917C0.729083 121.057 0 126.596 0 132.394C0 133.287 0.0180629 134.174 0.0509045 135.056H29.477C34.7513 135.056 39.0273 130.782 39.0273 125.506C39.0273 120.231 34.7529 115.955 29.477 115.955Z" fill="#C68D6D"/>
<path d="M62.4056 50.1425C63.8457 50.1425 65.2119 49.824 66.4369 49.2525C52.1065 46.3493 41.8336 41.8008 35.5428 38.3376C35.2866 40.7006 35.1553 43.1243 35.1553 45.594C35.1553 47.1293 35.2062 48.6466 35.3063 50.1425H62.4056Z" fill="#7C4737"/>
<path d="M20.0498 135.056C16.2024 128.819 13.5915 122.13 11.8197 115.957H2.05917C0.729083 121.057 0 126.596 0 132.394C0 133.288 0.0180629 134.174 0.0509045 135.056H20.0498Z" fill="#B2785B"/>
<path d="M184.486 177.99C189.906 177.99 194.999 175.908 199.421 172.257C187.949 165.459 172.454 157.029 156.237 150.414C160.947 166.632 171.824 177.99 184.486 177.99Z" fill="#C68D6D"/>
</svg>
