<svg width="300" height="224" viewBox="0 0 300 224" fill="none" xmlns="http://www.w3.org/2000/svg">
<path d="M174.523 100.14C173.65 100.14 172.762 99.9246 171.952 99.4618L139.443 81.1617C136.914 79.7419 136.014 76.5289 137.44 74.0047C138.865 71.4806 142.072 70.5656 144.597 72.0012L177.105 90.3013C179.635 91.7264 180.534 94.9341 179.109 97.4583C178.147 99.1779 176.364 100.14 174.523 100.14Z" fill="#AAB2BD"/>
<path d="M173.498 88.2662L153.163 76.8286L157.917 68.4148L185.893 84.1907L173.498 88.2662Z" fill="#CCD1D9"/>
<path d="M89.4493 73.6737H84.1906C78.4061 73.6737 73.6733 68.9988 73.6733 63.1564C73.6733 57.3719 78.4061 52.6392 84.1906 52.6392H105.225C111.062 52.6392 115.742 57.3719 115.742 63.1564V107.124L89.4493 115.743V73.6737Z" fill="#965353"/>
<path d="M320.777 178.899C323.669 178.899 326.036 181.271 326.036 184.158V194.675C326.036 197.572 323.669 199.933 320.777 199.933H315.518C312.626 199.933 307.893 199.933 305.001 199.933H294.484C291.592 199.933 286.859 199.933 283.967 199.933H42.0691C39.1769 199.933 34.4441 199.933 31.5518 199.933H21.0346C18.1423 199.933 13.4095 199.933 10.5173 199.933H5.25864C2.36639 199.933 0 197.572 0 194.675V184.158C0 181.271 2.36639 178.899 5.25864 178.899H5.31123H15.8285H231.38H241.897H310.26H320.777Z" fill="#656D78"/>
<path d="M15.7759 199.934H36.8104V273.555H15.7759V199.934Z" fill="#545C66"/>
<path d="M241.898 131.519V131.571H89.4497V131.519V115.743L115.743 107.124L169.223 89.6652H169.271L185.893 84.1909L220.863 103.911L241.898 115.743V131.519Z" fill="#E6E9ED"/>
<path d="M220.863 103.911V95.9701C217.708 93.02 215.657 88.8236 215.657 84.1907C215.657 75.4614 222.703 68.4148 231.433 68.4148C240.109 68.4148 247.156 75.4614 247.156 84.1907C247.156 88.8762 245.158 93.0252 241.95 95.9175H241.897V115.743L220.863 103.911Z" fill="#965353"/>
<path d="M289.225 199.934H310.26V273.555H289.225V199.934Z" fill="#545C66"/>
<path d="M247.156 131.571C244.264 131.571 239.531 131.571 236.639 131.571H94.7081C91.8158 131.571 87.0831 131.571 84.1908 131.571H15.8285C12.9362 131.571 10.5698 133.943 10.5698 136.83V142.089V152.606V173.64C10.5698 176.538 12.9362 178.899 15.8285 178.899H231.38H241.897H310.26C313.152 178.899 315.518 176.538 315.518 173.64V168.382C315.518 165.495 315.518 160.762 315.518 157.864V136.83C315.518 133.943 313.152 131.571 310.26 131.571H247.156Z" fill="#FFD2A6"/>
<path d="M94.7031 73.6631H89.4497V84.1804H94.7031C97.6111 84.1804 99.9617 81.8298 99.9617 78.9217C99.9617 76.0137 97.6111 73.6631 94.7031 73.6631Z" fill="#844747"/>
<path d="M84.1383 142.067H10.5278V152.585H84.1383C87.0463 152.585 89.3969 150.234 89.3969 147.326C89.3969 144.418 87.0463 142.067 84.1383 142.067Z" fill="#F7C292"/>
<path d="M252.414 157.843C240.814 157.843 231.38 167.272 231.38 178.878H241.897C241.897 173.072 246.614 168.361 252.414 168.361H315.508V157.843H252.414Z" fill="#F7C292"/>
<path d="M131.419 52.5865C128.511 52.5865 126.16 50.2359 126.16 47.3278C126.16 44.4198 128.511 42.0692 131.419 42.0692C145.917 42.0692 157.712 30.2688 157.712 15.776C157.712 12.8679 160.063 10.5173 162.971 10.5173C165.879 10.5173 168.229 12.8679 168.229 15.776C168.229 36.0743 151.717 52.5865 131.419 52.5865Z" fill="#FFD2A6"/>
<path d="M152.474 31.5518C143.776 31.5518 136.698 24.4737 136.698 15.7759C136.698 7.07813 143.776 0 152.474 0C161.172 0 168.25 7.07813 168.25 15.7759C168.25 24.4737 161.172 31.5518 152.474 31.5518V31.5518ZM152.474 10.5173C149.571 10.5173 147.216 12.8679 147.216 15.7759C147.216 18.6734 149.571 21.0346 152.474 21.0346C155.377 21.0346 157.733 18.6734 157.733 15.7759C157.733 12.8732 155.377 10.5173 152.474 10.5173Z" fill="#FFD2A6"/>
<path d="M173.493 57.8765C170.585 57.8765 168.234 55.5259 168.234 52.6179C168.234 49.7099 170.585 47.3593 173.493 47.3593C182.191 47.3593 189.269 40.2811 189.269 31.5833C189.269 28.6753 191.62 26.3247 194.528 26.3247C197.436 26.3247 199.786 28.6753 199.786 31.5833C199.786 46.0762 187.991 57.8765 173.493 57.8765Z" fill="#FFD2A6"/>
<path d="M189.411 10.5485C186.503 10.5485 184.126 8.19792 184.126 5.28989C184.126 2.38186 186.45 0.03125 189.353 0.03125H189.411C192.314 0.03125 194.67 2.38186 194.67 5.28989C194.67 8.19792 192.308 10.5485 189.411 10.5485Z" fill="#FFD2A6"/>
</svg>
