<svg width="88" height="63" viewBox="0 0 88 63" fill="none" xmlns="http://www.w3.org/2000/svg">
<path d="M30.7642 11.677C21.33 13.4007 17.1224 22.6161 21.4875 32.612L24.3098 36.5032L21.7707 38.4177L21.8914 40.0754L46.7075 40.4202V38.6341L43.2737 35.7037L41.1504 37.4715L37.8405 37.6769C37.8405 37.6769 40.6989 35.8688 42.4073 32.8614C44.0563 29.9567 44.5613 25.8857 44.3743 24.1448C43.994 20.6034 43.0266 19.6139 43.0266 19.6139L39.6171 19.7881C37.7627 15.6937 34.776 13.0358 30.7642 11.677Z" fill="#F9B257"/>
<path d="M63.5332 32.4648C62.7002 33.3733 61.7071 34.1751 60.5721 34.8886L61.2123 35.3336L63.0203 36.5841V37.8456L61.2378 38.4083L61.0959 36.9298L60.041 36.1133L58.4658 34.8886L59.7718 34.4105C60.2047 33.8441 60.6048 33.2666 60.9613 32.6818C63.1476 29.0848 63.8678 25.1311 63.0275 20.8489C62.9257 20.3538 62.8093 19.8529 62.671 19.3468L61.7252 19.4796C61.8598 19.9559 61.9726 20.4266 62.0708 20.8923C62.9803 25.2855 62.1982 29.2283 59.8773 32.7664C59.1279 33.9139 58.2149 35.0136 57.1526 36.0802L48.372 37.0328L47.8096 36.6429C48.4578 35.6168 49.0224 34.6164 49.5044 33.6344C51.5615 29.4232 52.0999 25.5246 51.0537 21.3847C50.9547 20.9868 50.8398 20.5863 50.7084 20.1832L49.4345 20.0235C49.5684 20.4998 49.6837 20.9732 49.7823 21.4418C50.7194 25.8483 50.1679 29.9565 48.1232 33.7484C47.6492 34.6348 47.09 35.4991 46.4531 36.3487L47.7641 37.4043L48.9394 38.3458L49.0544 39.8464L46.7524 40.4202V38.629L45.6018 37.6286L43.3669 35.6904L41.2712 37.4631H38.624C38.624 37.4631 40.0078 36.6209 41.528 34.5171C42.3443 33.3917 43.1955 31.9021 43.8968 29.997C45.1257 26.6464 44.7183 23.5742 44.2155 21.6904C43.8969 20.4943 43.5407 19.7771 43.5407 19.7771L65.5812 18.8628C65.7631 19.4983 65.9159 20.1155 66.0432 20.7135C67.1236 25.8703 66.0978 29.6659 63.5332 32.4648Z" fill="#FCCE8B"/>
<path d="M31.4375 12.0541C34.8006 12.7641 37.791 14.9933 40.158 19.761L67.3664 18.7647C65.1067 14.7347 61.9205 11.8131 56.3946 11.677L31.4375 12.0541Z" fill="#FDDDAF"/>
<path d="M45.3345 11.677V5.20815L44.9111 5.04378C44.9111 5.04378 45.7316 3.70553 46.3664 3.63534C47.0011 3.5648 47.9273 3.5562 48.2186 3.81869C48.5096 4.08154 49.4023 5.13796 49.4023 5.13796L48.6153 5.23178L48.6949 11.677H45.3345Z" fill="#ECD9D0"/>
<path d="M60.823 1.0098L59.932 1.16254L58.7758 0.332611L57.6308 0.167362L56.0807 0.563741L55.7272 1.02158C54.7772 0.741869 54.0003 0.843814 53.7463 2.09588C53.2602 2.13379 52.7927 2.22323 52.3619 2.4043C51.7175 1.77459 50.3275 2.13121 50.9439 3.38144C50.1247 4.0071 50.7149 5.24004 52.3103 4.89924C52.5054 5.89478 53.2161 6.32428 54.5931 6.01512C56.1801 6.48695 57.8075 6.67612 59.5417 6.00592C60.5432 6.45751 61.5116 6.51161 62.3879 5.56575C65.2525 5.71554 65.4292 3.40831 62.907 3.21436C62.826 1.92696 62.1891 1.14082 60.823 1.0098Z" fill="url(#paint0_linear)"/>
<path d="M45.139 11.677H46.7076V5.38944H44.9111L45.139 11.677Z" fill="#D3C4BB"/>
<path d="M46.7674 36.6475L45.6977 35.8328L43.5573 36.0107L41.3774 37.7253H38.624C38.624 37.7253 40.0634 36.9107 41.6446 34.8759L42.0453 34.6554C42.1096 34.6376 44.8827 34.417 48.5045 34.1324C48.0115 34.9898 47.4299 35.8257 46.7674 36.6475Z" fill="#F9B257"/>
<path d="M60.1808 33.2342C59.4557 34.4422 58.5722 35.5998 57.5444 36.7226L49.0481 37.7253L48.5039 37.3149C49.1312 36.2348 49.6774 35.1817 50.1438 34.1479C53.4648 33.8421 57.2804 33.4975 60.1808 33.2342Z" fill="#F9B257"/>
<path d="M60.6248 35.929L60.1026 35.5487L58.3848 35.929L59.7737 35.3974C60.2341 34.7677 60.6597 34.1257 61.0388 33.4755C62.1569 33.3733 63.1009 33.2915 63.7741 33.2343C62.8881 34.2443 61.8319 35.1357 60.6248 35.929Z" fill="#F9B257"/>
<path d="M65.5701 20.9746L62.6602 21.2839C62.5661 20.6549 62.472 20.1207 62.3395 19.4777L61.4335 19.6464C61.5624 20.2516 61.6704 20.8498 61.7645 21.4414L51.2101 22.0672C51.1153 21.5615 51.0052 21.0526 50.8794 20.5404L49.659 20.3376C49.7872 20.9428 49.8977 21.5443 49.9921 22.1396L44.6592 22.4556C44.3539 20.9358 44.0127 20.0245 44.0127 20.0245L65.1275 18.8627C65.3017 19.6702 65.4481 20.2151 65.5701 20.9746Z" fill="#F9B257"/>
<path d="M54.792 37.8927L56.8107 37.6127L58.1046 35.9288L61.0151 38.1343L61.0796 39.519C61.0796 39.519 60.3928 39.4806 60.2562 39.519C60.1196 39.5535 55.752 39.2543 55.752 39.2543L54.792 37.8927Z" fill="#F9B257"/>
<path d="M31.4374 12.5752C21.431 16.0345 16.7213 28.3211 27.1003 37.9757L25.1499 40.2207L21.5025 40.4202L21.6277 38.8099L24.1207 36.8949L23.152 35.7706L20.4484 31.8246L18.8623 25.4994L20.1524 20.4505L23.152 16.308L26.6407 13.6292L31.4374 12.5752Z" fill="#B38240"/>
<path d="M31.4375 17.9644H33.9573L34.1322 37.5628L31.5202 37.7253L31.4375 17.9644Z" fill="#B38240"/>
<path d="M20.8467 19.761L17.0664 19.5318C19.3385 15.476 22.5046 12.5957 27.8451 12.5752L26.8553 13.9333C23.9929 14.9033 22.0993 16.9694 20.8467 19.761Z" fill="#B38240"/>
<path d="M44.0127 19.8108L44.3136 20.6592L65.5701 19.5269L65.4111 18.8627L44.0127 19.8108Z" fill="#3E3B3C"/>
<path d="M39.5707 19.707C37.9634 15.8477 34.9377 13.0303 31.3754 11.894L55.9291 11.762C60.489 11.7146 64.1517 14.1335 66.8544 18.6809L39.5707 19.707ZM66.3486 24.5158C66.3486 29.0117 64.3326 33.0161 60.5924 35.3248L59.9352 34.8661C59.8798 34.8285 59.8134 34.8134 59.7469 34.8247L58.0226 35.0955V35.0992C57.9561 35.1067 57.8897 35.1443 57.8454 35.2045L56.5863 36.9529L47.8793 37.9117L45.1286 35.7723C45.0736 35.7309 45.006 35.7083 44.9355 35.7196L42.9516 35.9302V35.9339C42.8937 35.9377 42.8368 35.9603 42.7918 36.0054L39.9303 38.8066L36.5271 39.2127C41.2672 37.0657 44.6205 31.8656 44.6205 25.8043C44.6205 23.8216 44.2653 21.9081 43.5734 20.1071L65.3332 19.272C66.0052 20.9219 66.3486 22.6846 66.3486 24.5158ZM62.9333 38.3028L61.4564 38.7502L61.4527 37.6072C61.4527 37.5169 61.4121 37.4342 61.3382 37.3816L58.7721 35.5391L60.0053 35.2722L62.9333 37.25V38.3028ZM60.9099 38.7502H48.8563C48.8408 38.6938 48.8138 38.6374 48.7651 38.5998L48.5062 38.3968L56.7635 37.4906C56.8411 37.4793 56.9076 37.4417 56.9519 37.3778L58.126 35.7535L60.9099 37.7501V38.7502ZM48.3287 40.3107L46.7742 40.6904V39.2691C46.7742 39.1864 46.7395 39.1112 46.6789 39.0586L43.6376 36.4115L44.8849 36.2799L48.3287 38.957V40.3107ZM46.2311 40.7619L21.9391 40.525V39.1714L23.9735 37.4079L24.2029 37.5959C26.3167 39.2766 28.8975 40.2693 31.6833 40.2693C32.0762 40.2693 32.4646 40.2467 32.849 40.2091L32.8493 40.2129L32.9357 40.2016C32.9937 40.1941 33.0517 40.1866 33.1093 40.1791L39.732 39.3857L40.0809 39.3481C40.1407 39.3406 40.1965 39.3142 40.2397 39.2691L42.9911 36.5769L46.2311 39.397V40.7619ZM20.0498 25.8043C20.0498 18.9588 24.3923 13.1137 30.1972 12.0647C34.1582 12.787 37.6116 15.7785 39.2919 20.0954C39.3325 20.1996 39.4292 20.2673 39.5356 20.2673C39.5389 20.2673 39.5426 20.2673 39.5459 20.2673L42.7585 20.1293C43.4505 21.9179 43.8053 23.825 43.8053 25.8043C43.8053 32.956 39.3912 38.863 33.3884 39.6301L33.223 39.6527C32.8408 39.694 32.4546 39.7166 32.0636 39.7166C25.439 39.7166 20.0498 33.4749 20.0498 25.8043ZM17.4065 19.3303C19.5595 14.7317 23.1849 11.894 27.8356 11.894C27.9298 11.894 28.0236 11.8974 28.117 11.8996C24.5998 13.0265 21.7235 15.774 20.1233 19.3303L20.0114 19.5889L17.4065 19.3303ZM45.5133 4.98146H48.2097V11.3409H45.5133V4.98146ZM45.7452 3.80832C46.0092 3.45563 46.3758 3.24807 47.0061 3.24807C47.4362 3.24807 47.8472 3.44359 48.1167 3.79328L48.6059 4.42798H48.4815H45.5133H45.2803L45.7452 3.80832ZM67.3307 18.7892C64.4988 13.7917 60.5887 11.2901 55.6891 11.3409H48.7533V4.98146H49.1642C49.2687 4.98146 49.3628 4.92055 49.4086 4.82579C49.4544 4.73066 49.4418 4.61711 49.3776 4.53363L48.5439 3.4515C48.1699 2.96645 47.6046 2.68557 47.0024 2.69496C46.3965 2.69872 45.839 2.98261 45.4712 3.47292L44.6737 4.53664C44.6109 4.62049 44.6002 4.73292 44.646 4.82692C44.6918 4.9213 44.7863 4.98146 44.8897 4.98146H45.2412V11.3409H27.8356C22.8375 11.3409 18.3754 14.4651 16.1911 19.4949C16.1538 19.5803 16.1622 19.6792 16.2121 19.7574C16.2623 19.836 16.348 19.8834 16.4399 19.8834H19.8873C19.1544 21.7002 18.7461 23.707 18.7461 25.8043C18.7461 30.448 20.714 34.5841 23.7638 37.2312L21.5142 38.7991C21.4399 38.848 21.3956 38.9345 21.3956 39.0247V40.7995C21.3956 40.9499 21.516 41.074 21.6648 41.0777L46.5002 41.3184C46.501 41.3184 46.5017 41.3184 46.5025 41.3184C46.5243 41.3184 46.5442 41.3108 46.5649 41.3071L46.566 41.3108L48.6639 40.7957C48.7861 40.7656 48.8718 40.6566 48.8718 40.5287V39.303H61.1832C61.2127 39.303 61.2422 39.2954 61.2681 39.2879V39.2917L63.0219 38.6863C63.1326 38.6487 63.2065 38.5434 63.2065 38.4231V37.2011C63.2065 37.1071 63.1585 37.0206 63.081 36.968L60.9616 35.5504C64.7314 33.1252 66.8914 29.1207 66.8914 24.5158C66.8914 22.6812 66.559 20.9125 65.9092 19.2502L67.1055 19.2043C67.2015 19.2005 67.2864 19.1464 67.3307 19.0614C67.3787 18.9764 67.3787 18.8734 67.3307 18.7892Z" fill="#3E3B3C"/>
<path d="M33.2786 37.1823H27.5151V17.61H33.2786V37.1823ZM34.1321 37.4557V17.3384C34.1321 17.1877 34.0048 17.0662 33.8474 17.0662H27.2305C27.0735 17.0662 26.9463 17.1877 26.9463 17.3384V37.4557C26.9463 37.6034 27.0735 37.7253 27.2305 37.7253H33.8474C34.0048 37.7253 34.1321 37.6034 34.1321 37.4557Z" fill="#3E3B3C"/>
<path d="M19.3141 16.1679H22.4552L22.0696 17.0662H18.8623L19.3141 16.1679Z" fill="#3E3B3C"/>
<path d="M23.502 15.2698H19.7607L21.3263 14.3716H25.1501L23.502 15.2698Z" fill="#3E3B3C"/>
<path d="M27.0619 13.4734L23.3535 13.3619L25.3516 12.1198L27.2977 11.6769H28.2949H28.7429L28.61 12.0099L27.0619 13.4734Z" fill="#3E3B3C"/>
<path d="M25.1413 36.8273L23.3535 39.0042V40.326L31.0603 40.4202L31.4375 39.6043L26.4128 38.357L25.1413 36.8273Z" fill="#3E3B3C"/>
<path d="M36.5432 39.5219C36.5337 39.9638 41.6942 40.0725 46.7081 40.1932L45.6072 40.4202C45.6072 40.4202 35.6345 40.3405 35.5623 40.3405C35.4908 40.3405 30.6834 40.2777 30.6834 40.2777L30.54 39.8986L30.8749 39.6765L36.5432 39.5219Z" fill="#3E3B3C"/>
<path d="M37.8657 38.0345L41.3181 37.7253L40.0381 39.1382L35.9287 39.5217L37.8657 38.0345Z" fill="#3E3B3C"/>
<path d="M47.6055 36.8744L57.4859 35.9289L56.9317 36.8744L48.8463 37.7253L48.3447 37.6047L47.6055 36.8744Z" fill="#3E3B3C"/>
<path d="M55.6428 37.7253C56.4262 38.5544 57.9746 39.0136 60.1808 39.1517L59.5378 39.5217H52.0582H49.0693L48.5039 38.6213L49.505 38.0774L55.6428 37.7253Z" fill="#3E3B3C"/>
<path d="M46.7958 38.6235H48.5045L46.708 39.5217L46.7958 38.6235Z" fill="#3E3B3C"/>
<path d="M44.3959 24.8312L35.0303 24.9826L35.0649 26.0486L44.4436 25.8183L50.3001 25.1997C50.3001 24.8839 50.3001 24.568 50.3001 24.2521L44.3959 24.8312Z" fill="#3E3B3C"/>
<path d="M52.0967 24.7457C52.0967 24.8805 52.1265 25.0153 52.1265 25.1501L61.9771 24.6224C61.9771 24.4991 61.9771 24.3752 61.9771 24.2519L52.0967 24.7457Z" fill="#3E3B3C"/>
<path d="M66.304 23.3537L63.7734 23.6313C63.7734 23.8389 63.7861 24.0443 63.7861 24.252L66.4681 23.9404L66.304 23.3537Z" fill="#3E3B3C"/>
<path d="M27.7938 25.1504L19.7607 25.2287C19.8989 25.4682 19.9857 25.7538 20.0033 26.0486L27.8448 25.9288C27.7763 25.6801 27.7598 25.4083 27.7938 25.1504Z" fill="#3E3B3C"/>
<path d="M44.3959 28.1345L35.0303 28.2102L35.0376 28.7432L44.4436 28.6313L50.3001 28.2825C50.3001 28.1378 50.3001 27.9897 50.3001 27.8449L44.3959 28.1345Z" fill="#3E3B3C"/>
<path d="M51.2677 27.9691C51.2497 28.2291 51.2244 28.4832 51.1992 28.7432L61.9238 27.5128C61.9238 27.328 61.9779 27.1373 61.9779 26.9467L51.2677 27.9691Z" fill="#3E3B3C"/>
<path d="M26.8803 31.9738C26.8493 31.8045 26.8437 31.6211 26.8594 31.4377L20.6592 31.5083C20.7537 31.781 20.8417 32.0585 20.9278 32.3359L26.9467 32.2325C26.9203 32.1525 26.8972 32.0679 26.8803 31.9738Z" fill="#3E3B3C"/>
<path d="M50.4821 31.0997C50.4343 31.2061 50.3733 31.3054 50.3008 31.4377L61.0287 30.8137C61.0287 30.6979 61.0795 30.6672 61.0795 30.5395L50.4821 31.0997Z" fill="#3E3B3C"/>
<path d="M62.1677 30.0086C62.0787 30.2431 62.0544 30.3316 61.9775 30.5396L65.3479 30.1281C65.3479 30.1281 65.3439 30.1236 65.3479 30.1148C65.4045 29.9334 65.4814 29.7785 65.5704 29.6413L62.1677 30.0086Z" fill="#3E3B3C"/>
<path d="M43.4551 31.7924L35.0303 31.8534L35.035 32.3359L43.5031 32.2284L49.3487 31.836C49.3487 31.7022 49.4019 31.5714 49.4019 31.4377L43.4551 31.7924Z" fill="#3E3B3C"/>
<path d="M27.7818 35.5337C27.7832 35.349 27.8085 35.1847 27.8454 35.0359L22.4561 35.0307C22.6401 35.3284 22.8253 35.621 23.0014 35.929L27.8175 35.8982C27.794 35.775 27.781 35.6518 27.7818 35.5337Z" fill="#3E3B3C"/>
<path d="M41.7413 35.0307L35.0303 35.0251L35.0306 35.929L41.7907 35.8781L48.4641 34.8782C48.4641 34.6296 48.5036 34.3811 48.5036 34.1325L41.7413 35.0307Z" fill="#3E3B3C"/>
<path d="M61.3045 32.7359C61.2271 32.893 61.1531 33.0907 61.0791 33.2344L63.4912 32.7673C63.5148 32.6909 63.5484 32.6101 63.5887 32.5293C63.6594 32.39 63.6964 32.4574 63.7738 32.3362L61.3045 32.7359Z" fill="#3E3B3C"/>
<path d="M49.6494 34.3962C49.5407 34.5934 49.484 34.8678 49.4023 35.0308L60.0493 33.6631C60.0493 33.5216 60.1554 33.3801 60.181 33.2343L49.6494 34.3962Z" fill="#3E3B3C"/>
<path d="M25.1504 36.9619C25.4101 37.2538 25.6574 37.4963 25.9234 37.7253L39.0655 37.5322C39.1658 37.393 39.2713 37.2628 39.3749 37.128C39.412 37.0157 39.4636 36.9169 39.522 36.8271L25.1504 36.9619Z" fill="#3E3B3C"/>
<path d="M43.7611 21.8188L49.3955 21.5573C49.4394 21.7271 49.2376 21.8793 49.367 22.0342L43.8078 22.3125L35.0303 22.4556V21.9231L43.7611 21.8188Z" fill="#3E3B3C"/>
<path d="M51.1992 21.6161C51.2561 22.0012 51.2721 22.1264 51.3163 22.4556L61.9779 21.4339C61.9779 21.1752 61.9779 20.9178 61.9779 20.6591L51.1992 21.6161Z" fill="#3E3B3C"/>
<path d="M66.2181 20.6591L62.876 20.9294C62.9191 21.1408 62.9504 21.3194 62.9857 21.5574L66.4689 21.2562L66.2181 20.6591Z" fill="#3E3B3C"/>
<path d="M27.7187 22.4555L20.7911 22.5613C20.7499 22.8262 20.7035 23.0898 20.6592 23.3538L27.845 23.2053C27.7521 22.9764 27.7106 22.7155 27.7187 22.4555Z" fill="#3E3B3C"/>
<path d="M22.4561 16.168L36.8276 15.837C36.6079 15.6175 36.5798 15.6464 36.4176 15.3458L23.0513 15.2697C22.8506 15.5648 22.6632 15.8811 22.4561 16.168Z" fill="#3E3B3C"/>
<path d="M39.8878 17.9644L65.57 17.3309C65.353 17.2129 65.3246 17.2282 65.1645 17.0661L39.5215 17.5277L39.8878 17.9644Z" fill="#3E3B3C"/>
<path d="M36.3965 14.3716L61.9772 13.7413C61.7614 13.6219 61.733 13.6374 61.5738 13.4734L35.9287 13.8904L36.3965 14.3716Z" fill="#3E3B3C"/>
<path d="M25.1504 14.3716L35.0309 14.189C34.7188 14.0018 34.4127 13.7943 34.1351 13.5638C34.1002 13.5344 34.0684 13.5045 34.0376 13.4734L26.0173 13.5832C25.7469 13.8666 25.4489 14.1334 25.1504 14.3716Z" fill="#3E3B3C"/>
<path d="M45.8096 36.6048C45.896 36.6752 45.9763 36.7493 46.0555 36.8271C48.446 33.9847 50.3007 30.2083 50.3007 26.0391C50.3007 23.8645 49.9553 21.7521 49.2745 19.7609L48.7528 19.8795C49.424 21.8433 49.8463 23.9308 49.8463 26.0762C49.8463 30.1564 48.1351 33.8142 45.8096 36.6048Z" fill="#3E3B3C"/>
<path d="M61.8524 18.8832C61.7868 18.8832 61.601 18.8726 61.5428 18.8627C62.1693 20.7292 62.4862 22.708 62.4862 24.7447C62.4862 29.1255 61.0875 33.0453 58.3848 35.8029C58.4831 35.8305 58.5705 35.8738 58.6507 35.929C61.357 33.1201 62.8759 29.1649 62.8759 24.7447C62.8759 22.7135 62.5627 20.7395 61.9507 18.8722C61.9179 18.8749 61.8888 18.8832 61.8524 18.8832Z" fill="#3E3B3C"/>
<path d="M39.9104 36.1478L42.2162 35.9289L41.756 37.3404L39.5215 37.7253L39.9104 36.1478Z" fill="#3E3B3C"/>
<path d="M31.3089 19.7609H30.0257L28.7432 20.813V22.3017L30.0271 23.3538H31.3099L32.3361 22.3017V20.813L31.3089 19.7609Z" fill="#3E3B3C"/>
<path d="M48.9246 35.5705L48.5039 35.929L57.7152 35.4279L58.3844 35.0307L48.9246 35.5705Z" fill="#3E3B3C"/>
<path d="M47.6058 35.9289L44.9111 36.0697L46.2817 36.8271L47.6058 35.9289Z" fill="#3E3B3C"/>
<path d="M60.1807 35.2115L60.4732 34.4228L61.9771 34.1325L61.5947 34.7131L61.4253 35.2115L60.8325 35.929L60.1807 35.2115Z" fill="#3E3B3C"/>
<path d="M50.7952 20.6592C51.4814 22.1994 52.0972 24.0139 52.0972 26.0486C51.5511 24.057 50.9904 22.1529 50.3008 20.7437L50.7952 20.6592Z" fill="#3E3B3C"/>
<path d="M47.6055 36.7456C48.3112 35.6354 48.9099 34.465 49.4019 33.2343C49.101 34.4827 48.6483 35.6815 48.01 36.8271L47.6055 36.8165V36.7456Z" fill="#3E3B3C"/>
<path d="M34.1324 27.3959C34.1324 27.6442 33.7303 27.845 33.2344 27.845C32.738 27.845 32.3359 27.6442 32.3359 27.3959C32.3359 27.1475 32.738 26.9467 33.2344 26.9467C33.7303 26.9467 34.1324 27.1475 34.1324 27.3959Z" fill="#3E3B3C"/>
<path d="M62.876 19.8463C63.275 20.6733 63.5953 21.5577 63.747 22.4556C63.8481 21.6231 63.6627 20.8537 63.2693 19.7609L62.876 19.8463Z" fill="#3E3B3C"/>
<path d="M60.1807 34.9268L61.0789 32.3361C60.871 33.3217 60.6422 34.2215 60.3886 35.0308L60.1807 34.9268Z" fill="#3E3B3C"/>
<path d="M47.6055 5.38944V11.677H48.5037V5.38944H47.6055Z" fill="#3E3B3C"/>
<path d="M64.226 4.37397C64.1528 4.71223 63.8122 4.98424 63.4276 5.10307C63.0431 5.22154 62.5999 5.21558 62.2227 5.07222L62.0542 5.00737L61.9626 5.16195C61.7502 5.53421 61.2924 5.77817 60.8236 5.84442C60.4097 5.90682 59.9666 5.84232 59.604 5.65058C59.7578 5.47427 59.8457 5.23451 59.908 4.96531C59.7541 5.24467 59.5417 5.43221 59.2744 5.54122C58.5089 5.83111 57.6739 5.96536 56.8425 5.97868C56.066 5.98709 55.2823 5.89034 54.5498 5.65269C54.9893 5.31864 55.0479 4.92675 54.7183 4.47668C54.9124 4.95129 54.7402 5.30497 54.3373 5.58153L54.4216 5.61098C54.4106 5.60642 54.3959 5.60256 54.3849 5.59836L54.3373 5.58153L54.2934 5.5973C53.8795 5.74838 53.3997 5.74592 52.9859 5.59625C52.7771 5.51738 52.583 5.40522 52.4402 5.24398C52.2973 5.08835 52.2168 4.88223 52.2314 4.67542L52.2387 4.56396L52.1325 4.59796C51.8945 4.67332 51.7003 4.66631 51.4476 4.64072C51.1986 4.60987 50.9898 4.57798 50.78 4.41674C50.6353 4.30527 50.4394 4.11213 50.4547 3.86536C50.4632 3.72655 50.5327 3.54112 50.6353 3.42475C50.6928 3.3599 50.7675 3.30803 50.8598 3.253C50.9462 3.20147 51.0557 3.15555 51.118 3.14398C51.0155 3.13031 50.9199 3.13311 50.8239 3.15099C50.7836 3.10332 50.7056 3.00062 50.6807 2.88389C50.6628 2.80117 50.6653 2.63642 50.7345 2.49516C50.7891 2.38474 50.9316 2.22736 51.1436 2.13587C51.3158 2.06051 51.5465 2.06647 51.6381 2.07839C51.8395 2.10503 52.03 2.19756 52.1655 2.33918L52.1948 2.37037C52.2717 2.50392 52.3376 2.64168 52.323 2.77313C52.3523 2.6543 52.3779 2.51479 52.2863 2.33182C52.4731 2.23577 52.6746 2.16812 52.887 2.13517C52.9969 2.11729 53.1104 2.10783 53.2239 2.10783C53.3375 2.10853 53.451 2.12571 53.5609 2.13342L53.6708 2.14043V2.04158C53.6708 1.64444 53.9125 1.26692 54.2751 1.08219C54.634 0.891154 55.0845 0.888004 55.4397 1.07869C55.6961 1.20733 55.9122 1.38785 56.0624 1.64724C56.0074 1.37383 55.9122 1.12461 55.6888 0.958111C55.8939 0.726414 56.1905 0.560609 56.5092 0.460008C56.8608 0.347139 57.2417 0.302973 57.6189 0.320149C57.9925 0.334521 58.3661 0.413041 58.6993 0.558859C58.985 0.682243 59.2487 0.870478 59.3916 1.10533C58.8788 1.50703 58.8459 1.90278 58.8605 2.3164C58.9301 1.91645 59.1279 1.5547 59.7139 1.31073C60.0252 1.20803 60.3658 1.16982 60.6954 1.19716C61.0323 1.22801 61.3693 1.3167 61.655 1.48144C61.9406 1.64093 62.186 1.86982 62.3142 2.14604C62.4461 2.41839 62.4571 2.73632 62.3435 3.01464L62.2043 3.34483L62.5743 3.287C62.9772 3.2232 63.413 3.29331 63.7499 3.49171C64.0905 3.6873 64.3103 4.03607 64.226 4.37397ZM64.53 3.68379C64.3945 3.45315 64.1968 3.27122 63.977 3.14258C63.6217 2.94032 63.2188 2.85164 62.8196 2.86145C62.8709 2.56351 62.827 2.24944 62.6915 1.97954C62.5193 1.61254 62.208 1.33002 61.8601 1.14073C61.5122 0.947244 61.1166 0.849792 60.7247 0.819647C60.3878 0.795811 60.0472 0.834371 59.7212 0.926559C59.5161 0.595663 59.1791 0.382199 58.8458 0.240237C58.4576 0.0796965 58.0401 0.00678494 57.6262 0.000825875C57.216 -0.0075868 56.7985 0.0506021 56.4066 0.186606C56.055 0.310692 55.7108 0.506983 55.4654 0.806331C55.2713 0.729216 55.0625 0.685402 54.8537 0.694165C54.612 0.703629 54.3666 0.765321 54.1579 0.886252C53.9454 1.00333 53.7697 1.17473 53.6488 1.37664C53.5279 1.57889 53.473 1.86457 53.4803 1.94764C53.3924 1.94274 53.3045 1.93713 53.2203 1.94028C53.0958 1.94554 52.9749 1.96096 52.854 1.98479C52.616 2.03281 52.279 2.1839 52.2204 2.21895C52.041 2.06226 51.6527 1.83407 51.2096 1.91995C50.8371 1.99251 50.6331 2.37177 50.5968 2.46817C50.5284 2.65114 50.5478 2.84323 50.5639 2.92841C50.5862 3.04654 50.6818 3.15625 50.7097 3.18744C50.4833 3.30732 50.3335 3.52535 50.3046 3.7907C50.276 4.05324 50.4119 4.31719 50.6236 4.47668C50.8353 4.64388 51.0997 4.73641 51.3634 4.78023C51.6015 4.81388 51.8432 4.80968 52.0776 4.7606C52.0776 4.97618 52.1582 5.1914 52.2973 5.35615C52.4548 5.55279 52.6746 5.69019 52.9016 5.78834C53.3558 5.9629 53.8649 5.98359 54.3337 5.83987C55.1321 6.14167 55.9891 6.27487 56.8425 6.28714C57.6775 6.29555 58.5235 6.18829 59.322 5.90857C59.7834 6.1946 60.3475 6.2938 60.8822 6.22264C61.1642 6.18584 61.4462 6.09715 61.6989 5.95554C61.904 5.84022 62.0872 5.68564 62.23 5.49495C62.6622 5.62149 63.1273 5.61623 63.5595 5.48619C63.8012 5.41048 64.0319 5.29094 64.2297 5.12234C64.4238 4.95198 64.585 4.72625 64.6436 4.46161C64.7095 4.19906 64.6582 3.91584 64.53 3.68379Z" fill="#3E3B3C"/>
<path d="M0.27985 61.847C-0.306688 60.9563 0.0920895 60.0178 0.889605 59.8081C1.66356 59.5984 2.48426 59.8301 2.46106 60.1136C2.4143 60.8643 2.97691 61.3097 3.3521 61.3317C3.86832 61.3317 4.19638 60.9563 4.24351 60.2056C4.26707 59.6203 3.68052 58.9175 3.14111 58.5641C2.06229 57.8611 0.25592 56.9962 0.209159 55.4247C0.138833 53.5256 1.71031 52.4215 4.24351 52.4694C6.37795 52.5172 7.22221 53.8311 7.36286 54.5561C7.52708 55.3291 7.19904 55.6823 6.33083 55.8C5.60401 55.8921 4.8536 55.4726 4.90037 55.1892C4.99389 54.5782 4.71258 53.8753 4.10284 53.8753C3.6102 53.901 3.30532 54.3206 3.30532 54.9793C3.28176 55.5646 3.84475 56.3632 4.73615 56.8527C5.88529 57.4636 7.38644 58.2365 7.41 59.9957C7.41 61.6151 5.60401 62.9511 3.63379 62.9952C2.08552 63.0431 0.842455 62.7376 0.27985 61.847Z" fill="url(#paint1_linear)"/>
<path d="M21.8008 62.5979C20.9566 62.5979 19.8774 62.2702 19.6899 60.7466C19.2444 56.7607 19.7367 54.2765 19.0099 54.2765C18.4002 54.2765 17.4381 56.6909 17.1799 59.6204C17.1568 61.5415 17.1567 61.2839 17.1332 61.8727C17.1332 61.8727 17.1332 61.7293 17.11 61.4974C17.1332 61.6151 17.1332 61.755 17.1332 61.8727C17.0864 62.8334 14.1545 62.7156 14.1545 61.8727C14.1545 58.45 14.6 54.063 13.8496 54.0188C13.146 53.971 12.2546 58.8475 12.2314 61.2397C12.2546 61.5195 12.2545 61.7293 12.2545 61.7771V61.8029C12.2313 62.7635 8.90064 62.6199 8.90064 61.7771C8.90064 60.4633 9.25266 52.9626 8.7832 52.9626C8.5251 52.9626 9.13521 52.3295 10.3079 52.4952C11.5042 52.6829 11.8558 53.5257 11.9265 54.696C11.9497 54.9095 11.9732 55.2371 11.9968 55.6602C12.3484 53.9011 13.1228 52.5172 14.53 52.5651C16.3592 52.635 17.11 53.9011 17.2271 55.4726C17.6026 54.1587 18.4469 52.635 20.2529 52.635C21.5192 52.635 22.4106 53.6876 22.4106 56.0577C22.4106 57.6513 22.3874 61.755 23.0671 61.8249C23.1613 61.847 23.0671 62.5979 21.8008 62.5979Z" fill="url(#paint2_linear)"/>
<path d="M27.954 60.982C27.274 60.982 27.0158 59.9258 27.0158 58.6377C27.0158 57.2648 27.3748 54.6739 28.6602 54.1365C29.0365 53.9783 29.5159 54.1255 29.8955 54.3647C30.1754 54.5378 30.3683 54.8542 30.4427 54.9903C30.3046 55.9804 30.0774 57.32 29.7129 58.6377C29.3381 59.9737 28.5873 60.982 27.954 60.982ZM34.146 61.9427C33.7712 61.9427 33.4192 56.2933 33.6302 53.5477C33.6773 52.7969 30.7921 52.024 30.6282 53.4777C30.622 53.5182 30.6135 53.5955 30.6014 53.7022C30.4681 53.5624 30.2302 53.3747 29.9232 53.2459C29.4044 53.0324 28.7077 52.9625 28.095 53.0103C25.6392 53.198 23.9668 55.5166 23.9668 58.0745C23.9668 61.615 26.2415 62.3622 27.3207 62.3879C29.2442 62.4358 30.2527 60.8386 30.4872 60.0657C30.6043 59.646 30.6043 59.9478 30.7921 60.8643C31.0738 62.3622 32.0351 62.7156 32.903 62.7156C34.146 62.7156 34.2399 61.9427 34.146 61.9427Z" fill="url(#paint3_linear)"/>
<path d="M59.2474 60.982C58.5699 60.982 58.3121 59.9258 58.3121 58.6377C58.3121 57.2648 58.6693 54.6739 59.9543 54.1365C60.3335 53.9783 60.8122 54.1255 61.1914 54.3647C61.4713 54.5378 61.6627 54.8542 61.7364 54.9903C61.6001 55.9804 61.3719 57.32 61.0073 58.6377C60.6318 59.9737 59.8807 60.982 59.2474 60.982ZM65.4404 61.9427C65.0649 61.9427 64.7151 56.2933 64.9249 53.5477C64.9728 52.7969 62.0861 52.024 61.9241 53.4777C61.9168 53.5182 61.9094 53.5955 61.8984 53.7022C61.7622 53.5624 61.5265 53.3747 61.2172 53.2459C60.6981 53.0324 60.0022 52.9625 59.3909 53.0103C56.9351 53.198 55.2598 55.5166 55.2598 58.0745C55.2598 61.615 57.5352 62.3622 58.6177 62.3879C60.5397 62.4358 61.5486 60.8386 61.7806 60.0657C61.8984 59.646 61.8984 59.9478 62.0862 60.8643C62.3697 62.3622 63.3307 62.7156 64.1996 62.7156C65.4404 62.7156 65.5361 61.9427 65.4404 61.9427Z" fill="url(#paint4_linear)"/>
<path d="M39.3495 61.8249C39.4434 61.847 39.3495 62.5979 38.1065 62.5979C37.2387 62.5979 35.5497 61.847 35.5497 59.5984C35.5497 57.5815 35.8781 49.7496 35.4091 49.7496C35.1513 49.7496 35.7611 49.0945 36.9338 49.2822C38.13 49.4699 38.4817 50.3127 38.552 51.4867C38.6223 52.6571 38.5288 54.1808 38.5755 57.0882C38.5755 57.6735 38.6927 61.755 39.3495 61.8249Z" fill="url(#paint5_linear)"/>
<path d="M43.9548 61.8249C44.0486 61.847 43.9548 62.5979 42.7117 62.5979C41.8435 62.5979 40.1553 61.847 40.1553 59.5984C40.1553 57.5815 40.4834 49.7496 40.0147 49.7496C39.7566 49.7496 40.3663 49.0945 41.5386 49.2822C42.7349 49.4699 43.0869 50.3127 43.1572 51.4867C43.2276 52.6571 43.1337 54.1808 43.1804 57.0882C43.1804 57.6735 43.2983 61.755 43.9548 61.8249Z" fill="url(#paint6_linear)"/>
<path d="M49.7664 54.1329C48.9689 54.1329 47.9136 55.4947 47.843 58.1665C48.0543 59.9737 48.5701 61.615 49.4847 61.615C50.6578 61.615 51.2204 60.0914 51.3382 57.7912C51.4782 55.167 50.681 54.1329 49.7664 54.1329ZM53.9635 57.7912C53.9635 61.074 52.395 62.7375 49.0628 62.7375C46.1076 62.7375 45.0049 60.2533 45.0049 57.4635C45.0049 49.9151 50.6578 50.1728 51.1726 47.545C51.2204 47.3573 52.4171 47.7805 52.4171 49.0245C52.4171 49.7974 51.4303 50.5702 50.2591 51.4609C49.3912 52.1197 48.6173 52.5172 48.1714 53.5256C48.5937 53.0582 49.1567 52.7049 49.9542 52.657C51.5481 52.5871 53.9635 53.268 53.9635 57.7912Z" fill="url(#paint7_linear)"/>
<path d="M76.1364 62.1302C76.1364 62.5499 73.3455 62.8811 73.2756 62.1302C73.2056 61.4016 73.1835 59.9477 73.1577 58.4021C72.2667 58.4941 70.9559 58.6119 69.947 58.7074C70.017 60.2312 70.0649 61.6371 70.0649 61.777C70.1091 62.7634 66.7106 62.6197 66.7106 61.777C66.7106 60.4631 67.0604 52.9624 66.5928 52.9624C66.335 52.9624 66.9426 52.3294 68.1171 52.495C69.3137 52.6827 69.6893 53.5255 69.7593 54.6958L69.8771 57.3457C70.6024 57.298 71.4456 57.228 72.1746 57.206C72.5023 57.206 72.83 57.1838 73.1356 57.1838C73.1356 55.1412 73.1357 53.198 73.1835 52.8667C73.2314 52.4214 75.4111 52.0718 75.481 52.8667C75.5289 53.3857 76.0444 57.6991 76.1364 62.1302Z" fill="url(#paint8_linear)"/>
<path d="M77.4395 52.9623C77.1817 52.9623 77.7893 52.3072 78.9638 52.4949C80.1605 52.6826 80.5102 53.5254 80.5802 54.6957C80.7937 60.393 80.8158 61.0739 81.5449 61.0518C82.5979 61.026 83.0692 58.9393 83.2791 58.1664C83.6288 56.9703 83.8167 53.7831 83.8424 52.8924C83.8645 52.3072 86.7254 52.2115 86.7254 52.8924C86.7254 54.2284 86.7254 55.5901 86.6812 56.9004C86.7033 57.6511 86.6812 61.7548 87.3587 61.8247C87.4544 61.8468 87.3587 62.5977 86.0921 62.5977C85.2489 62.5977 84.0044 62.27 83.9124 60.3489C83.8866 59.7379 83.8866 59.3625 83.7025 59.8557C82.7636 62.2479 80.7238 63.5361 78.9859 62.4578C78.1648 61.9426 77.7451 60.934 77.7451 60.0177C77.7451 58.7074 77.9071 52.9623 77.4395 52.9623Z" fill="url(#paint9_linear)"/>
<defs>
<linearGradient id="paint0_linear" x1="51.2241" y1="1.09813" x2="64.1035" y2="6.33318" gradientUnits="userSpaceOnUse">
<stop stop-color="white"/>
<stop offset="1" stop-color="#ECD9D0"/>
</linearGradient>
<linearGradient id="paint1_linear" x1="2.52128e-05" y1="57.736" x2="7.41" y2="57.736" gradientUnits="userSpaceOnUse">
<stop stop-color="#549171"/>
<stop offset="1" stop-color="#438E66"/>
</linearGradient>
<linearGradient id="paint2_linear" x1="8.72466" y1="57.5336" x2="23.094" y2="57.5336" gradientUnits="userSpaceOnUse">
<stop stop-color="#549171"/>
<stop offset="1" stop-color="#438E66"/>
</linearGradient>
<linearGradient id="paint3_linear" x1="23.9668" y1="57.6881" x2="34.1731" y2="57.6881" gradientUnits="userSpaceOnUse">
<stop stop-color="#549171"/>
<stop offset="1" stop-color="#438E66"/>
</linearGradient>
<linearGradient id="paint4_linear" x1="55.2634" y1="57.6881" x2="65.4698" y2="57.6881" gradientUnits="userSpaceOnUse">
<stop stop-color="#549171"/>
<stop offset="1" stop-color="#438E66"/>
</linearGradient>
<linearGradient id="paint5_linear" x1="35.3505" y1="55.9216" x2="39.3763" y2="55.9216" gradientUnits="userSpaceOnUse">
<stop stop-color="#549171"/>
<stop offset="1" stop-color="#438E66"/>
</linearGradient>
<linearGradient id="paint6_linear" x1="39.9558" y1="55.9216" x2="43.9816" y2="55.9216" gradientUnits="userSpaceOnUse">
<stop stop-color="#549171"/>
<stop offset="1" stop-color="#438E66"/>
</linearGradient>
<linearGradient id="paint7_linear" x1="45.0049" y1="55.1229" x2="53.9648" y2="55.1229" gradientUnits="userSpaceOnUse">
<stop stop-color="#549171"/>
<stop offset="1" stop-color="#438E66"/>
</linearGradient>
<linearGradient id="paint8_linear" x1="66.5339" y1="57.4857" x2="76.1385" y2="57.4857" gradientUnits="userSpaceOnUse">
<stop stop-color="#549171"/>
<stop offset="1" stop-color="#438E66"/>
</linearGradient>
<linearGradient id="paint9_linear" x1="77.3806" y1="57.6291" x2="87.3872" y2="57.6291" gradientUnits="userSpaceOnUse">
<stop stop-color="#549171"/>
<stop offset="1" stop-color="#438E66"/>
</linearGradient>
</defs>
</svg>
