<svg width="86" height="86" viewBox="0 0 86 86" fill="none" xmlns="http://www.w3.org/2000/svg">
<mask id="mask0" mask-type="alpha" maskUnits="userSpaceOnUse" x="0" y="0" width="86" height="86">
<circle cx="43" cy="43" r="43" fill="white"/>
</mask>
<g mask="url(#mask0)">
<path d="M76.9158 29.2452L64.6802 27.207C63.8547 27.0691 62.769 27 61.6831 27C60.5974 27 59.5114 27.069 58.6881 27.207L46.4525 29.2452C45.627 29.3831 44.5412 29.4543 43.4554 29.4543C42.3696 29.4543 41.2838 29.3831 40.4604 29.2452L28.2248 27.207C27.3993 27.0691 26.3135 27 25.2277 27C24.1419 27 23.0561 27.069 22.2327 27.207L9.9971 29.2452C8.34829 29.5212 7 31.1143 7 32.783V81.3928C7 82.8969 8.09251 83.9738 9.51205 83.9738C9.66993 83.9738 9.83252 83.9604 9.9971 83.9338L22.2327 81.8913C23.0559 81.7532 24.1417 81.6864 25.2277 81.6864C26.3136 81.6864 27.3993 81.7532 28.2248 81.8913L40.4604 83.9338C41.2836 84.0719 42.3694 84.1384 43.4554 84.1384C44.5413 84.1384 45.627 84.0719 46.4525 83.9338L58.6881 81.8913C59.5113 81.7532 60.5973 81.6864 61.6831 81.6864C62.769 81.6864 63.8547 81.7532 64.6802 81.8913L76.9158 83.9338C77.0805 83.9606 77.2406 83.9738 77.4009 83.9738C78.8205 83.9738 79.9106 82.8967 79.9106 81.3928V32.783C79.9108 31.1143 78.5623 29.5212 76.9158 29.2452Z" fill="#A0D468"/>
<path d="M16.6282 60.0367L15.6025 57.1784C15.6937 57.1431 17.9121 56.3506 21.568 55.4207L22.3178 58.3679C18.8155 59.258 16.6483 60.0277 16.6282 60.0367Z" fill="#434A54"/>
<path d="M24.8743 57.7526L24.209 54.7888C27.8003 53.9812 31.4048 53.3781 34.9182 53.0021L35.2431 56.0214C31.8432 56.3863 28.3543 56.9694 24.8743 57.7526ZM61.2875 57.6658C57.8387 56.8759 54.3564 56.2973 50.9321 55.9526L51.239 52.9288C54.7859 53.2893 58.395 53.8857 61.9683 54.7045L61.2875 57.6658ZM37.8576 55.7813L37.6262 52.753C39.6064 52.6039 41.5646 52.5283 43.4558 52.5283C45.1134 52.5283 46.82 52.5861 48.5245 52.7018L48.3197 55.7324C46.6822 55.6211 45.0466 55.5677 43.4557 55.5677C41.6424 55.5677 39.7578 55.6388 37.8576 55.7813Z" fill="#434A54"/>
<path d="M73.3915 60.5709L71.4269 58.6037L73.3915 56.6403C73.6652 56.3664 73.8365 55.986 73.8365 55.5677C73.8365 54.7267 73.1558 54.048 72.3169 54.048C71.8964 54.048 71.5181 54.2193 71.2421 54.493L69.2798 56.4578L67.3149 54.493C67.0413 54.2193 66.6609 54.048 66.2404 54.048C65.4014 54.048 64.7228 54.7267 64.7228 55.5677C64.7228 55.986 64.8921 56.3664 65.1678 56.6403L67.1303 58.6037L65.1677 60.5709C64.8918 60.8422 64.7227 61.2249 64.7227 61.6432C64.7227 62.4797 65.4014 63.1607 66.2402 63.1607C66.6607 63.1607 67.0412 62.9915 67.3148 62.7157L69.2796 60.7531L71.2421 62.7157C71.5181 62.9916 71.8964 63.1607 72.3169 63.1607C73.1558 63.1607 73.8365 62.4797 73.8365 61.6432C73.8365 61.2248 73.6652 60.8422 73.3915 60.5709Z" fill="#ED5564"/>
<path opacity="0.1" d="M22.2327 27.207L9.9971 29.2452C8.34829 29.5212 7 31.1143 7 32.783V81.3928C7 82.8969 8.09251 83.9738 9.51205 83.9738C9.66993 83.9738 9.83252 83.9604 9.9971 83.9338L22.2327 81.8913C23.0559 81.7532 24.1417 81.6864 25.2277 81.6864V27C24.1419 27 23.0561 27.0691 22.2327 27.207Z" fill="black"/>
<path opacity="0.1" d="M58.6878 27.207L46.4522 29.2452C45.6267 29.3831 44.5409 29.4543 43.4551 29.4543V84.1384C44.5409 84.1384 45.6267 84.0719 46.4522 83.9338L58.6878 81.8913C59.511 81.7532 60.597 81.6864 61.6828 81.6864V27C60.5971 27 59.5111 27.0691 58.6878 27.207Z" fill="black"/>
</g>
</svg>
