<svg width="40" height="40" viewBox="0 0 40 40" fill="none" xmlns="http://www.w3.org/2000/svg">
<rect width="40" height="40" rx="20" fill="#F4731C"/>
<path d="M22.5049 25.44C23.7799 25.15 24.9979 24.646 26.1049 23.95C26.9389 23.392 27.1629 22.264 26.6049 21.43C26.0689 20.628 25.0009 20.386 24.1699 20.877C21.6199 22.472 18.3799 22.472 15.8299 20.877C14.9829 20.343 13.8649 20.597 13.3299 21.442C13.3299 21.444 13.3299 21.446 13.3279 21.447C12.7939 22.294 13.0479 23.413 13.8949 23.947L13.8969 23.949C15.0019 24.644 16.2189 25.149 17.4929 25.437L14.0279 28.902C13.3209 29.597 13.3079 30.732 13.9999 31.439L14.0299 31.469C14.3739 31.823 14.8399 31.999 15.3039 31.999C15.7689 31.999 16.2339 31.823 16.5789 31.469L19.9999 28.065L23.4039 31.471C24.1239 32.166 25.2739 32.147 25.9699 31.426C26.6479 30.723 26.6479 29.608 25.9699 28.906L22.5049 25.44ZM19.9999 20.388C23.4199 20.384 26.1899 17.614 26.1949 14.195C26.1949 10.78 23.4149 8 19.9999 8C16.5849 8 13.8049 10.78 13.8049 14.197C13.8099 17.617 16.5809 20.387 19.9999 20.389V20.388ZM19.9999 11.631C21.4159 11.633 22.5629 12.781 22.5639 14.196C22.5639 15.612 21.4159 16.759 19.9999 16.761C18.5849 16.759 17.4379 15.613 17.4349 14.197C17.4369 12.78 18.5849 11.633 19.9999 11.63V11.631Z" fill="white"/>
</svg>
