<svg width="105" height="105" viewBox="0 0 105 105" fill="none" xmlns="http://www.w3.org/2000/svg">
<circle cx="52.5" cy="52.5" r="52.5" fill="#FEE887"/>
<mask id="mask0" mask-type="alpha" maskUnits="userSpaceOnUse" x="0" y="0" width="105" height="105">
<circle cx="52.5" cy="52.5" r="52.5" fill="white"/>
</mask>
<g mask="url(#mask0)">
<path d="M31.9914 79.2278L17.5445 111.414C17.0462 112.524 17.9499 113.753 19.1577 113.608L27.2522 112.641L31.9171 119.33C32.6127 120.327 34.1302 120.185 34.6281 119.076L49.2543 86.4892L31.9914 79.2278Z" fill="#FF507D"/>
<path d="M74.0077 79.2278L88.4546 111.414C88.9529 112.524 88.0492 113.753 86.8414 113.608L78.7469 112.641L74.0818 119.33C73.3862 120.327 71.8687 120.185 71.3708 119.076L56.7446 86.4892L74.0077 79.2278Z" fill="#D23C69"/>
<path d="M88.4547 111.414L78.2888 88.766L77.9499 88.0107C77.9499 88.0107 75.9357 88.766 74.4109 91.5746C73.6795 92.9217 72.5479 93.9128 71.7959 94.4701C71.3541 94.7979 71.1997 95.3869 71.4245 95.8889L78.9445 112.665L86.8411 113.609C88.0493 113.753 88.9528 112.524 88.4547 111.414Z" fill="#FF507D"/>
<path d="M31.9914 79.2278L17.5445 111.414C17.0462 112.524 17.9499 113.753 19.1577 113.608L27.0543 112.664L34.3373 96.4176C34.7234 95.5561 35.7037 95.1988 36.5972 95.504C37.4032 95.7791 38.2555 95.9273 39.1259 95.9273C39.5389 95.9273 39.9559 95.8948 40.3644 95.8304L44.7395 95.1421C44.7555 95.1417 44.7706 95.141 44.7851 95.141C44.9186 95.141 44.9954 95.1648 45.0633 95.2063L45.282 95.3394L49.2543 86.489L31.9914 79.2278Z" fill="#D23C69"/>
<path d="M92.8502 56.667L90.5408 60.4547C90.0199 61.3091 89.8191 62.321 89.9746 63.3098L90.6629 67.685C90.9093 69.2514 90.2576 70.8242 88.975 71.7569L85.395 74.3609C84.5845 74.9506 84.01 75.8089 83.7744 76.783L82.732 81.0905C82.3595 82.629 81.1585 83.8299 79.6201 84.2022L75.3128 85.2444C74.3387 85.48 73.48 86.0547 72.8905 86.865L70.2873 90.444C69.3544 91.7265 67.7816 92.3783 66.215 92.1319L61.8415 91.4435C60.8527 91.2878 59.8407 91.4884 58.9859 92.0097L55.1989 94.319C53.8486 95.1423 52.1514 95.1423 50.8013 94.319L47.0137 92.0095C46.1593 91.4886 45.1473 91.2878 44.1585 91.4433L39.7833 92.1317C38.2169 92.3781 36.6441 91.7263 35.7115 90.4438L33.1074 86.8638C32.5178 86.0533 31.6594 85.4787 30.6854 85.2431L26.3779 84.2007C24.8394 83.8283 23.6384 82.6273 23.2662 81.0888L22.224 76.7816C21.9884 75.8075 21.4137 74.9487 20.6033 74.3593L17.0242 71.7557C15.7416 70.8228 15.0899 69.25 15.3363 67.6834L16.0246 63.3098C16.1803 62.321 15.9797 61.3091 15.4584 60.4542L13.1488 56.667C12.3254 55.3168 12.3254 53.6195 13.1488 52.2695L15.4582 48.4818C15.9791 47.6274 16.1799 46.6154 16.0244 45.6267L15.3361 41.2515C15.0897 39.6851 15.7414 38.1123 17.024 37.1796L20.604 34.5755C21.4145 33.9859 21.989 33.1276 22.2246 32.1535L23.267 27.846C23.6395 26.3075 24.8404 25.1066 26.3789 24.7343L30.6862 23.6921C31.6603 23.4565 32.519 22.8818 33.1084 22.0715L35.7119 18.4925C36.6447 17.21 38.2176 16.5582 39.7842 16.8046L44.1577 17.493C45.1465 17.6487 46.1585 17.4481 47.0133 16.9267L50.8003 14.6175C52.1506 13.7942 53.8478 13.7942 55.1979 14.6175L58.9857 16.927C59.8401 17.4478 60.8521 17.6487 61.8409 17.4932L66.2161 16.8048C67.7825 16.5584 69.3553 17.2102 70.288 18.4927L72.892 22.0727C73.4816 22.8832 74.34 23.4578 75.314 23.6934L79.6215 24.7358C81.16 25.1082 82.361 26.3092 82.7332 27.8476L83.7754 32.1549C84.011 33.129 84.5857 33.9878 85.3961 34.5772L88.975 37.1804C90.2576 38.1133 90.9093 39.6861 90.6629 41.2527L89.9746 45.6263C89.8189 46.615 90.0195 47.627 90.5408 48.4818L92.85 52.2688C93.6736 53.6197 93.6736 55.3168 92.8502 56.667Z" fill="#FFC850"/>
<path d="M28.6594 46.0427C28.6594 34.8171 32.8696 24.579 39.789 16.8056L39.7846 16.805C38.218 16.5582 36.6452 17.2101 35.7125 18.4927L33.1093 22.0716C32.5197 22.8822 31.6611 23.4567 30.687 23.6923L26.3798 24.7345C24.8413 25.1065 23.6403 26.3077 23.2679 27.8461L22.2255 32.1536C21.9899 33.1277 21.4152 33.9863 20.6048 34.5757L17.0246 37.1797C15.7423 38.1124 15.0903 39.6852 15.3367 41.2516L16.0251 45.6266C16.1808 46.6154 15.98 47.6271 15.4589 48.4818L13.149 52.2694C12.3257 53.6197 12.3257 55.3169 13.149 56.667L15.4582 60.454C15.9795 61.3086 16.18 62.3208 16.0245 63.3096L15.3361 67.6831C15.0893 69.2497 15.7413 70.8225 17.0238 71.7552L20.6028 74.3584C21.4133 74.948 21.9878 75.8066 22.2234 76.7807L23.2656 81.088C23.6376 82.6264 24.8388 83.8274 26.3773 84.1999L30.6848 85.2422C31.6589 85.4779 32.5174 86.0526 33.1068 86.8629L35.7105 90.4429C36.6433 91.7252 38.216 92.3772 39.7823 92.1308L44.1573 91.4424C45.1461 91.2867 46.1579 91.4873 47.0127 92.0087L50.8006 94.3181C52.151 95.1414 53.848 95.1414 55.1981 94.3181L58.9851 92.0089C59.8397 91.4876 60.8519 91.2871 61.8407 91.4426L66.2144 92.131C67.781 92.3776 69.3539 91.7258 70.2865 90.4433L70.6161 89.9901C47.2647 88.9231 28.6594 69.658 28.6594 46.0427Z" fill="#E1A546"/>
<path d="M53.0009 84.4258C69.5459 84.4258 82.9583 71.0134 82.9583 54.4684C82.9583 37.9234 69.5459 24.511 53.0009 24.511C36.4559 24.511 23.0435 37.9234 23.0435 54.4684C23.0435 71.0134 36.4559 84.4258 53.0009 84.4258Z" fill="#FFDC64"/>
<path d="M59.9918 69.1078C48.9663 67.3487 40.1189 58.5012 38.3597 47.4758C37.7401 43.5908 37.9922 39.8452 38.9361 36.3836C39.4019 34.6758 37.3724 33.3699 36.024 34.5166C29.7379 39.8618 26.0039 48.1124 26.9256 57.2027C28.162 69.3989 38.0684 79.3052 50.2644 80.5415C59.3548 81.4632 67.6056 77.7294 72.9505 71.4431C74.097 70.0945 72.7913 68.0652 71.0835 68.531C67.6223 69.4755 63.8767 69.7277 59.9918 69.1078Z" fill="#FFC850"/>
<path d="M52.9995 67.0643L42.1014 73.1647C40.9675 73.7995 39.611 72.8136 39.8642 71.5393L42.2983 59.2893L33.1287 50.8097C32.1747 49.9273 32.6929 48.3326 33.9831 48.1796L46.3857 46.709L51.6168 35.3681C52.1609 34.1882 53.838 34.1882 54.3823 35.3681L59.6134 46.709L72.016 48.1796C73.3062 48.3326 73.8244 49.9273 72.8704 50.8097L63.7008 59.2893L66.1348 71.5393C66.388 72.8136 65.0314 73.7995 63.8977 73.1647L52.9995 67.0643Z" fill="white"/>
<path d="M52.9726 34.4905C52.4267 34.5002 51.8843 34.788 51.6168 35.3679L46.3857 46.709L33.9831 48.1796C32.6929 48.3326 32.1747 49.9274 33.1287 50.8095L42.2983 59.2893L39.8642 71.5393C39.611 72.8136 40.9677 73.7995 42.1014 73.1647L43.8264 72.1994L46.7503 58.8309C46.8836 58.221 46.7265 57.5838 46.3248 57.1057L43.2277 53.4212C42.7045 52.7991 43.0113 51.8443 43.7989 51.6432L48.743 50.3807C49.4984 50.1878 50.0744 49.576 50.2216 48.8104L52.9726 34.4905Z" fill="#FFFAB4"/>
<path d="M65.6487 72.9612L59.6335 66.2774C58.6438 65.1779 57.0309 64.8972 55.728 65.5976L52.9998 67.0642L63.8979 73.1646C64.5175 73.5115 65.1949 73.365 65.6487 72.9612Z" fill="#FFFAB4"/>
</g>
</svg>
