<svg width="105" height="105" viewBox="0 0 105 105" fill="none" xmlns="http://www.w3.org/2000/svg">
<circle cx="52.5" cy="52.5" r="52.5" fill="#FEE887"/>
<mask id="mask0" mask-type="alpha" maskUnits="userSpaceOnUse" x="0" y="0" width="105" height="105">
<circle cx="52.5" cy="52.5" r="52.5" fill="white"/>
</mask>
<g mask="url(#mask0)">
<path d="M92.0262 81.4818L73.0881 94.1561L67.4441 93.8392L67.2232 91.6181C66.894 88.3113 64.3481 85.6571 61.0578 85.1916L41.0347 83.4368C39.0725 83.1592 34.9453 80.9769 31.7094 79.1209C28.6414 77.361 25.1754 76.4136 21.6391 76.3842L11.459 76.3003V101.187L40.2745 112.099C41.3638 112.407 42.5077 112.499 43.625 112.323C43.6315 112.321 43.6387 112.32 43.6451 112.319L72.6557 108.137C74.8903 107.781 76.9916 106.839 78.7458 105.409L97.4952 88.5451C99.1784 87.0512 99.4904 84.5397 98.2238 82.6794C96.839 80.6434 94.0701 80.1084 92.0262 81.4818Z" fill="#FAE0C1"/>
<path d="M98.2237 82.6787C98.0989 82.4944 97.9612 82.323 97.8149 82.1638L78.7457 96.1678C76.9915 97.5985 74.8902 98.5394 72.6555 98.8966L43.645 103.078C43.6378 103.079 43.6314 103.08 43.6249 103.081C42.5068 103.258 41.363 103.166 40.2743 102.858L11.4581 91.9466V101.187L40.2743 112.099C41.363 112.406 42.5068 112.499 43.6249 112.322C43.6314 112.321 43.6378 112.32 43.645 112.319L72.6555 108.137C74.8902 107.78 76.9915 106.839 78.7457 105.408L97.4951 88.5451C99.1783 87.0505 99.4902 84.5398 98.2237 82.6787Z" fill="#EFD0AF"/>
<path d="M18.9289 109.777H6.95881C5.87733 109.777 5.00024 108.9 5.00024 107.819V71.2708C5.00024 70.1893 5.87733 69.3123 6.95881 69.3123H18.9289C20.0104 69.3123 20.8875 70.1893 20.8875 71.2708V107.819C20.8875 108.9 20.0104 109.777 18.9289 109.777Z" fill="#F43B45"/>
<path d="M18.9287 69.3123H11.6625V109.777H18.9287C20.0102 109.777 20.8873 108.9 20.8873 107.819V71.2708C20.8873 70.1893 20.0102 69.3123 18.9287 69.3123Z" fill="#CF3735"/>
<path d="M76.2872 37.4381C71.5568 35.4745 68.2528 31.0274 67.801 25.8481C67.7386 25.1395 67.1369 24.6002 66.4255 24.6045L37.3669 24.7752C36.6476 24.7795 36.0595 25.3382 36.0043 26.0553C35.6056 31.2361 32.3504 35.7155 27.6422 37.7293C26.8455 38.0699 26.3664 38.8932 26.456 39.7552C27.1165 46.0698 30.962 67.5688 51.926 77.239C52.0127 77.2792 52.1088 77.3 52.2049 77.2993C52.301 77.2986 52.3964 77.277 52.4832 77.2362C73.331 67.3214 76.9247 45.7794 77.5106 39.4569C77.5917 38.5877 77.0933 37.7723 76.2872 37.4381Z" fill="#75CFF2"/>
<path d="M76.2875 37.4381C71.5571 35.4745 68.2531 31.0274 67.8013 25.8481C67.7389 25.1395 67.1372 24.6002 66.4258 24.6045L58.5083 24.6511C58.5177 30.331 61.9514 35.3182 67.0375 37.4338C67.8458 37.7701 68.3514 38.5848 68.2703 39.4569C67.7267 45.319 64.5949 64.262 47.5258 74.8932C48.9027 75.733 50.3657 76.519 51.9255 77.239C52.013 77.2792 52.1091 77.3 52.2052 77.2993C52.3013 77.2986 52.3967 77.277 52.4835 77.2354C73.3313 67.3207 76.925 45.7794 77.5109 39.4569C77.592 38.5877 77.0935 37.7723 76.2875 37.4381Z" fill="#53B4E4"/>
<path d="M51.8007 71.253C37.456 63.4675 33.2958 49.0268 32.1032 41.9412C32.0522 41.6379 32.1871 41.3324 32.4488 41.1703C36.3459 38.7542 39.1916 35.002 40.476 30.6266C40.5707 30.3046 40.8676 30.0837 41.2032 30.0823L62.6499 29.9561C62.9855 29.9539 63.2845 30.1712 63.3835 30.4925C64.7189 34.8514 67.6083 38.5699 71.534 40.9408C71.7972 41.1 71.9356 41.4034 71.8883 41.7075C70.7796 48.8073 66.7907 63.2961 52.5372 71.2487C52.3091 71.3756 52.0294 71.3771 51.8007 71.253Z" fill="#E1E0DE"/>
<path d="M71.5338 40.9408C67.6081 38.5699 64.7187 34.8514 63.3833 30.4925C63.2851 30.1712 62.9853 29.9546 62.6497 29.9561L54.0022 30.007C55.2672 34.5753 58.2234 38.4831 62.294 40.9415C62.5572 41.1 62.6948 41.4034 62.6475 41.706C61.6564 48.0522 58.3639 60.3027 47.4954 68.5113C48.8178 69.4909 50.2493 70.411 51.8005 71.253C52.0292 71.3771 52.3089 71.3756 52.537 71.2487C66.7905 63.2968 70.7794 48.8073 71.8881 41.7082C71.9362 41.4041 71.797 41.1 71.5338 40.9408Z" fill="#D6D6D6"/>
<path d="M16.2833 100.786C16.2833 102.774 14.6711 104.386 12.6832 104.386C10.6945 104.386 9.08301 102.774 9.08301 100.786C9.08301 98.7975 10.6945 97.186 12.6832 97.186C14.6711 97.186 16.2833 98.7975 16.2833 100.786Z" fill="#D6D6D6"/>
<path d="M51.3404 57.2748C51.798 57.2726 52.252 57.0568 52.523 56.648L61.9637 42.3994C62.3969 41.7461 62.2183 40.8662 61.565 40.433C60.9124 40.0005 60.0317 40.1791 59.5993 40.8325L51.0916 53.6718L46.3641 49.1831C45.7954 48.6438 44.8982 48.6667 44.3582 49.2354C43.8189 49.8034 43.8425 50.7013 44.4105 51.2406C44.4105 51.2406 50.3622 56.8918 50.3644 56.8932C50.6369 57.1521 50.9898 57.2769 51.3404 57.2748Z" fill="#505264"/>
<path d="M67.2817 92.2097L38.1873 94.1511C38.1679 94.1504 38.1492 94.1489 38.1327 94.1475C37.2306 94.0657 36.4152 93.639 35.8364 92.9455C35.3143 92.3194 34.3834 92.2348 33.7581 92.7569C33.132 93.279 33.0481 94.2099 33.5695 94.836C34.6531 96.1347 36.1792 96.9344 37.8688 97.0871C37.9405 97.0936 38.0123 97.0986 38.0732 97.1007C38.117 97.1029 38.1607 97.1036 38.2045 97.1036C38.221 97.1036 38.2547 97.1036 38.2704 97.1029C38.2848 97.1022 38.2984 97.1015 38.312 97.1007L67.4431 93.8341L67.2817 92.2097Z" fill="#EFD0AF"/>
</g>
</svg>
